<svg width="550" height="434" viewBox="0 0 751 685" fill="none" xmlns="http://www.w3.org/2000/svg">
<path fill-rule="evenodd" clip-rule="evenodd" d="M739.218 156.411C738.636 155.988 737.255 155.838 736.613 155.71C733.942 155.184 731.191 154.955 728.468 154.955C720.073 154.968 711.542 155.792 703.287 157.219C698.045 158.123 691.708 161.171 686.494 159.516C677.41 156.633 668.23 156.774 659.611 160.891C651.731 164.654 645.75 171.803 642.26 179.527C641.732 180.693 639.596 184.985 638.991 187.878C638.733 188.469 638.484 189.064 638.26 189.669C637.625 191.385 637.054 193.131 636.525 194.881C636.298 195.628 635.73 197.276 636.405 197.594C635.326 199.588 634.368 201.642 633.571 203.762C631.252 209.93 628.716 216.695 627.901 223.232C627.6 225.652 627.588 228.087 627.868 230.511C628.007 231.711 627.95 234.12 628.762 235.032C630.487 236.966 631.372 234.259 631.178 232.969C629.694 223.141 632.561 213.911 635.958 204.673C638.155 198.7 641.765 193.234 645.809 188.285C649.082 184.278 652.592 181.123 657.079 178.467C662.565 175.218 668.431 172.593 674.242 169.959C678.064 168.226 681.891 166.539 685.819 165.046C686.694 164.713 688.067 163.861 689.036 163.858C691.085 163.851 693.988 165.362 695.967 165.924C702.475 167.775 709.066 170.144 715.792 171.089C720.107 171.696 724.149 171.013 728.183 169.576C728.596 169.429 729.288 169.052 730.134 168.513C733.13 167.36 735.964 165.91 738.431 163.817C739.852 162.613 741.143 161.054 742.319 159.628C742.671 159.202 742.827 158.714 742.832 158.249C743.098 158.11 743.275 157.946 743.315 157.757C743.609 156.353 740.932 156.328 739.218 156.411Z" fill="#ABC543"/>
<path fill-rule="evenodd" clip-rule="evenodd" d="M57.2495 273.399C55.6025 274.733 53.9871 276.094 52.4111 277.512C51.21 278.592 49.0845 279.885 48.6533 281.522C48.2051 283.223 49.6201 284.816 50.738 285.843C56.6492 291.282 63.3055 294.959 71.4965 295.571C84.1088 296.512 95.0851 293.291 106.028 286.954C113.715 282.502 118.807 275.918 119.919 267.026C129.073 270.83 137.926 276.075 145.45 282.511C149.163 285.686 152.36 289.204 155.317 293.105C157.212 295.603 159.044 298.142 160.744 300.778C161.483 301.923 162.234 303.955 163.454 304.614C164.887 305.389 166.619 304.174 166.548 302.582C166.488 301.256 165.058 299.719 164.387 298.635C163.277 296.835 162.148 295.047 160.96 293.298C159.037 290.464 157.05 287.671 154.883 285.02C150.012 279.061 143.814 274.141 137.39 269.944C125.066 261.893 111.54 256.821 96.5444 256.391C87.3237 256.127 79.5667 259.277 71.6815 263.982C66.7721 266.911 61.7043 269.791 57.2495 273.399Z" fill="#99A080"/>
<path fill-rule="evenodd" clip-rule="evenodd" d="M176.859 234.457C167.25 224.562 157.608 214.79 146.872 206.075C140.545 200.941 133.878 196.272 127.348 191.404C128.101 192.064 128.839 192.743 129.561 193.439C127.522 192.055 124.854 191.273 122.694 189.992C120.283 188.563 117.978 186.928 115.718 185.282C111.306 182.067 106.961 178.791 102.426 175.744C97.3736 172.35 92.1374 169.213 86.9989 165.946C82.6378 163.174 78.2234 160.14 73.558 157.873C71.0152 156.638 68.4664 155.175 65.9132 153.886C65.0587 153.455 56.388 147.98 56.4099 147.963C56.8891 147.603 61.2524 149.652 61.9271 149.928C63.8982 150.733 65.7832 151.696 67.6783 152.656C66.6381 150.605 65.8148 148.448 65.3666 146.18C65.2281 145.479 64.1188 140.381 64.6864 139.953C64.9699 139.739 67.7362 148.862 67.8779 149.738C67.993 150.451 67.9761 151.476 68.2093 152.151C68.5858 153.241 68.5668 152.911 69.3962 153.526C70.9163 154.651 72.9341 155.354 74.5794 156.293C75.4665 156.789 78.2134 158.753 79.8678 159.313C84.8738 161.744 89.948 165.485 94.7044 168.59C93.4562 166.244 92.5062 163.791 91.8134 161.22C91.6486 160.61 89.8708 155.135 90.3022 154.81C90.7875 154.444 94.1749 162.807 94.3756 163.598C94.7483 165.069 94.8257 166.705 95.2926 168.136C95.8044 169.707 97.4031 170.263 98.8435 171.179C104.144 174.546 109.263 178.124 114.295 181.867C119.788 172.1 113.455 160.306 108.119 152.11C104.271 146.204 99.0934 141.14 93.6249 136.72C86.3274 130.819 77.978 126.106 69.6389 121.795C59.9221 116.772 49.4201 113.659 38.5018 112.221C32.7914 111.469 26.9494 111.49 21.1812 111.732C18.3635 111.848 15.6589 112.221 12.9587 113.141C11.7416 113.556 10.5654 114.079 9.41914 114.664C8.54822 115.108 6.44148 115.577 5.94072 116.239C1.8188 121.605 -0.289905 126.951 0.0321187 133.693C0.336573 140.074 2.35208 146.459 5.08737 152.152C8.13355 158.49 12.0513 164.243 17.1752 169.072C21.0844 172.756 25.4549 175.962 29.7966 179.126C45.2388 190.38 64.8169 200.168 84.8171 197.653C91.2913 196.84 97.4489 194.576 103.203 191.499C104.559 190.774 105.907 190.041 107.187 189.185C108.05 188.608 110.357 186.007 111.225 185.913C112.415 185.784 114.977 188.203 116.094 188.94C124.577 194.54 132.838 200.443 140.925 206.585C149.53 213.119 157.712 220.099 165.654 227.406C169.032 230.513 172.388 233.629 175.667 236.842C176.431 237.589 178.298 240.341 179.683 240.466C180.558 240.545 181.149 239.797 181.024 238.987C180.807 237.578 177.843 235.471 176.859 234.457Z" fill="#D9FB52"/>
<path fill-rule="evenodd" clip-rule="evenodd" d="M729.13 196.051C725.408 195.238 721.298 195.3 717.507 195.367C697.173 195.644 677.205 205.271 664.211 220.653C653.148 233.748 650.106 250.029 647.92 266.487C647.704 268.121 647.611 269.744 647.489 271.382C647.463 271.734 647.423 272.047 647.381 272.343C646.522 273.111 646.07 274.007 646.58 274.991C644.687 279.134 643.085 283.383 641.71 287.765C637.664 300.663 633.55 313.807 636.084 327.37C636.677 319.906 637.923 312.274 639.413 304.932C639.498 304.511 639.591 304.093 639.687 303.676C639.697 303.633 639.706 303.588 639.716 303.544C640.243 301.296 640.928 299.116 641.762 296.97C641.771 296.946 641.779 296.923 641.788 296.9C641.898 296.617 642.015 296.336 642.131 296.055C642.37 295.473 642.615 294.893 642.875 294.316C642.964 294.118 643.047 293.92 643.129 293.72C644.343 290.745 644.855 287.393 645.943 284.316C646.202 283.616 646.474 282.919 646.759 282.225C646.776 282.184 646.793 282.144 646.81 282.104C647.581 280.237 648.431 278.393 649.331 276.569C649.82 276.201 650.081 275.29 650.503 274.462C650.589 274.298 651.271 273.21 651.474 272.583C652.004 271.558 652.531 270.533 653.065 269.51C653.05 269.516 653.033 269.522 653.017 269.528C653.551 268.545 654.086 267.567 654.618 266.593C654.735 266.379 654.852 266.165 654.97 265.95C655.161 265.609 655.352 265.267 655.542 264.927C657.323 261.739 659.212 258.616 661.173 255.531C661.874 254.43 663.545 252.851 663.866 251.616C663.878 251.569 663.88 251.526 663.888 251.483C668.144 245.505 673.042 239.992 678.919 235.624C678.208 236.392 676.698 238.997 676.3 239.513C675.077 241.092 673.752 242.562 672.421 244.05C670.037 246.716 667.711 249.466 665.643 252.374C661.86 257.693 658.599 263.29 655.514 269C655.485 269.033 655.453 269.064 655.425 269.099C653.875 271.01 652.899 273.898 651.784 276.083C656.199 274.038 661.082 272.706 665.613 270.89C670.133 269.08 674.529 267.063 678.773 264.696C684.414 261.549 690.266 257.997 695.596 253.977C701.704 250.188 706.837 244.973 711.368 239.501C716.728 233.025 721.64 226.494 724.678 218.632C726.171 214.769 727.345 210.74 728.042 206.664C728.072 206.488 728.11 206.294 728.153 206.095C728.865 204.687 729.502 203.248 730.036 201.776C730.884 199.44 732.889 196.872 729.13 196.051Z" fill="#99A080"/>
<path fill-rule="evenodd" clip-rule="evenodd" d="M98.4266 223.407C97.2611 222.145 95.9517 221.006 94.4138 220.193C94.025 219.987 91.1293 218.612 90.9407 218.914C90.5014 219.616 98.0763 223.004 98.4266 223.407ZM112.156 214.973C112.147 215.027 113.151 216.73 113.424 217.254C114.006 218.368 114.543 219.503 115.048 220.641C114.301 218.632 113.531 216.768 112.156 214.973ZM41.9411 228.842C40.9741 229.153 39.8115 227.925 41.0657 227.623C42.0807 227.381 42.0309 227.324 42.4866 226.505C42.8567 225.842 43.0846 225.032 43.4094 224.336C44.0982 222.858 44.8795 221.449 45.8386 220.128C47.894 217.298 50.3983 214.859 53.2071 212.803C58.109 209.217 63.6052 205.938 69.4355 204.291C78.7057 201.672 89.2565 201.511 98.5412 203.326C104.292 204.45 109.546 206.406 113.364 211.036C115.273 213.349 116.771 216.06 117.426 219.045C117.597 219.825 117.565 220.692 117.779 221.456C118.108 222.631 117.963 222.318 119.337 222.546C120.836 222.796 122.334 223.051 123.833 223.31C127.756 223.989 131.702 224.709 135.524 225.81C136.782 226.173 138.012 226.616 139.215 227.13C140.124 227.518 143.743 228.739 144.183 229.92C144.915 231.885 142.462 230.995 141.699 230.566C141.032 230.192 140.346 229.841 139.651 229.519C137.9 228.71 136.075 228.082 134.209 227.583C132.193 227.044 130.136 226.642 128.085 226.238C126.174 225.863 124.256 225.521 122.334 225.194C121.267 225.013 120.2 224.836 119.132 224.66C118.766 224.599 118.123 224.284 118.171 224.758C115.926 224.325 113.498 224.387 111.21 224.268C108.409 224.122 105.597 224.002 102.786 224.089C100.759 224.153 98.7299 224.286 96.7122 224.559C95.5337 224.718 94.3739 224.95 93.2176 225.245C92.5824 225.408 90.0775 225.751 89.7315 226.305C89.8801 226.067 92.6446 226.298 92.9965 226.284C94.4038 226.231 95.8 226.092 97.2022 225.936C99.8048 225.644 102.407 225.493 105.018 225.514C105.008 225.973 103.225 226.789 102.789 227.092C101.814 227.774 100.879 228.516 100.007 229.332C98.4713 230.767 96.6315 232.544 95.5697 234.245C95.8829 233.744 97.427 233.092 97.9748 232.709C98.8533 232.096 99.7142 231.441 100.528 230.742C101.279 230.096 101.981 229.397 102.67 228.685C103.36 227.972 104.295 226.489 105.202 226.014C105.257 225.985 105.652 226.297 105.875 226.191C106.102 226.084 106.384 225.549 106.441 225.528C107.284 225.202 108.886 225.607 109.773 225.649C112.072 225.755 114.371 225.893 116.668 226.02C117.38 226.059 117.985 225.896 118.254 226.421C118.54 226.982 118.015 228.454 117.866 229.064C117.311 231.33 116.328 233.36 114.779 235.116C111.878 238.404 108.3 240.595 104.259 242.062C88.7808 247.677 72.3137 249.927 56.8397 244.085C50.4337 241.666 40.7859 237.345 41.9411 228.842Z" fill="#ABC543"/>
<g opacity="0.6">
<path fill-rule="evenodd" clip-rule="evenodd" d="M750.661 493.404C761.191 564.688 505.816 611.184 286.01 578.735C66.2026 546.287 -34.6343 419.572 70.2538 352.054C175.142 284.535 740.13 422.12 750.661 493.404Z" fill="#2A2A2A"/>
</g>
<path d="M301.388 26.1897H145.341C140.52 26.1897 136.611 30.0982 136.611 34.9196V347.013C136.611 351.834 140.52 355.742 145.341 355.742H301.388C306.209 355.742 310.117 351.834 310.117 347.013V34.9196C310.117 30.0982 306.209 26.1897 301.388 26.1897Z" fill="#121212"/>
<path fill-rule="evenodd" clip-rule="evenodd" d="M222.819 335.009C231.858 335.009 239.187 327.68 239.187 318.64C239.187 309.601 231.858 302.272 222.819 302.272C213.779 302.272 206.45 309.601 206.45 318.64C206.45 327.68 213.779 335.009 222.819 335.009Z" fill="black"/>
<path fill-rule="evenodd" clip-rule="evenodd" d="M208.633 48.0144C209.838 48.0144 210.815 47.0373 210.815 45.8319C210.815 44.6265 209.838 43.6494 208.633 43.6494C207.427 43.6494 206.45 44.6265 206.45 45.8319C206.45 47.0373 207.427 48.0144 208.633 48.0144Z" fill="black"/>
<path d="M237.005 43.6494H218.454C217.248 43.6494 216.271 44.6265 216.271 45.8319C216.271 47.0372 217.248 48.0144 218.454 48.0144H237.005C238.21 48.0144 239.187 47.0372 239.187 45.8319C239.187 44.6265 238.21 43.6494 237.005 43.6494Z" fill="black"/>
<path d="M290.475 56.7444H156.253C153.843 56.7444 151.888 58.6986 151.888 61.1093V111.306C151.888 113.717 153.843 115.671 156.253 115.671H290.475C292.886 115.671 294.84 113.717 294.84 111.306V61.1093C294.84 58.6986 292.886 56.7444 290.475 56.7444Z" fill="black"/>
<mask id="mask0_63_1687" style="mask-type:luminance" maskUnits="userSpaceOnUse" x="194" y="74" width="81" height="24">
<path d="M274.107 74.4224H194.447V97.993H274.107V74.4224Z" fill="white"/>
</mask>
<g mask="url(#mask0_63_1687)">
<path d="M270.833 74.4224H197.72C195.912 74.4224 194.447 75.888 194.447 77.6961V79.9877C194.447 81.7957 195.912 83.2614 197.72 83.2614H270.833C272.641 83.2614 274.107 81.7957 274.107 79.9877V77.6961C274.107 75.888 272.641 74.4224 270.833 74.4224Z" fill="#99A080"/>
<path d="M244.643 89.1541H197.72C195.912 89.1541 194.447 90.6197 194.447 92.4278V94.7194C194.447 96.5274 195.912 97.9931 197.72 97.9931H244.643C246.451 97.9931 247.917 96.5274 247.917 94.7194V92.4278C247.917 90.6197 246.451 89.1541 244.643 89.1541Z" fill="#99A080"/>
</g>
<path fill-rule="evenodd" clip-rule="evenodd" d="M174.804 99.3027C182.036 99.3027 187.899 93.4395 187.899 86.2078C187.899 78.9762 182.036 73.113 174.804 73.113C167.573 73.113 161.71 78.9762 161.71 86.2078C161.71 93.4395 167.573 99.3027 174.804 99.3027Z" fill="#E7E7E7"/>
<path d="M290.475 124.401H156.253C153.843 124.401 151.888 126.355 151.888 128.766V165.868C151.888 168.278 153.843 170.233 156.253 170.233H290.475C292.886 170.233 294.84 168.278 294.84 165.868V128.766C294.84 126.355 292.886 124.401 290.475 124.401Z" fill="black"/>
<mask id="mask1_63_1687" style="mask-type:luminance" maskUnits="userSpaceOnUse" x="194" y="138" width="81" height="19">
<path d="M274.107 138.15H194.447V156.483H274.107V138.15Z" fill="white"/>
</mask>
<g mask="url(#mask1_63_1687)">
<path d="M270.833 138.15H197.72C195.912 138.15 194.447 139.616 194.447 141.424V141.751C194.447 143.559 195.912 145.025 197.72 145.025H270.833C272.641 145.025 274.107 143.559 274.107 141.751V141.424C274.107 139.616 272.641 138.15 270.833 138.15Z" fill="#99A080"/>
<path d="M244.643 149.608H197.72C195.912 149.608 194.446 151.074 194.446 152.882V153.209C194.446 155.017 195.912 156.483 197.72 156.483H244.643C246.451 156.483 247.917 155.017 247.917 153.209V152.882C247.917 151.074 246.451 149.608 244.643 149.608Z" fill="#99A080"/>
</g>
<path fill-rule="evenodd" clip-rule="evenodd" d="M174.804 160.412C182.036 160.412 187.899 154.548 187.899 147.317C187.899 140.085 182.036 134.222 174.804 134.222C167.573 134.222 161.709 140.085 161.709 147.317C161.709 154.548 167.573 160.412 174.804 160.412Z" fill="#E7E7E7"/>
<path d="M290.475 178.963H156.253C153.843 178.963 151.888 180.917 151.888 183.328V220.43C151.888 222.84 153.843 224.794 156.253 224.794H290.475C292.886 224.794 294.84 222.84 294.84 220.43V183.328C294.84 180.917 292.886 178.963 290.475 178.963Z" fill="black"/>
<mask id="mask2_63_1687" style="mask-type:luminance" maskUnits="userSpaceOnUse" x="194" y="192" width="81" height="20">
<path d="M274.107 192.712H194.447V211.045H274.107V192.712Z" fill="white"/>
</mask>
<g mask="url(#mask2_63_1687)">
<path d="M270.833 192.712H197.72C195.912 192.712 194.447 194.178 194.447 195.986V196.313C194.447 198.121 195.912 199.587 197.72 199.587H270.833C272.641 199.587 274.107 198.121 274.107 196.313V195.986C274.107 194.178 272.641 192.712 270.833 192.712Z" fill="#99A080"/>
<path d="M244.643 204.17H197.72C195.912 204.17 194.446 205.636 194.446 207.444V207.771C194.446 209.579 195.912 211.045 197.72 211.045H244.643C246.451 211.045 247.917 209.579 247.917 207.771V207.444C247.917 205.636 246.451 204.17 244.643 204.17Z" fill="#99A080"/>
</g>
<path fill-rule="evenodd" clip-rule="evenodd" d="M174.804 214.973C182.036 214.973 187.899 209.11 187.899 201.879C187.899 194.647 182.036 188.784 174.804 188.784C167.573 188.784 161.709 194.647 161.709 201.879C161.709 209.11 167.573 214.973 174.804 214.973Z" fill="#ABC543"/>
<path d="M290.475 233.524H156.253C153.843 233.524 151.888 235.479 151.888 237.889V274.991C151.888 277.402 153.843 279.356 156.253 279.356H290.475C292.886 279.356 294.84 277.402 294.84 274.991V237.889C294.84 235.479 292.886 233.524 290.475 233.524Z" fill="black"/>
<mask id="mask3_63_1687" style="mask-type:luminance" maskUnits="userSpaceOnUse" x="194" y="247" width="81" height="19">
<path d="M274.107 247.274H194.447V265.607H274.107V247.274Z" fill="white"/>
</mask>
<g mask="url(#mask3_63_1687)">
<path d="M270.833 247.274H197.72C195.912 247.274 194.447 248.74 194.447 250.548V250.875C194.447 252.683 195.912 254.149 197.72 254.149H270.833C272.641 254.149 274.107 252.683 274.107 250.875V250.548C274.107 248.74 272.641 247.274 270.833 247.274Z" fill="#99A080"/>
<path d="M244.643 258.732H197.72C195.912 258.732 194.446 260.198 194.446 262.006V262.333C194.446 264.141 195.912 265.607 197.72 265.607H244.643C246.451 265.607 247.917 264.141 247.917 262.333V262.006C247.917 260.198 246.451 258.732 244.643 258.732Z" fill="#99A080"/>
</g>
<path fill-rule="evenodd" clip-rule="evenodd" d="M174.804 269.535C182.036 269.535 187.899 263.672 187.899 256.44C187.899 249.209 182.036 243.345 174.804 243.345C167.573 243.345 161.709 249.209 161.709 256.44C161.709 263.672 167.573 269.535 174.804 269.535Z" fill="#E7E7E7"/>
<path fill-rule="evenodd" clip-rule="evenodd" d="M169.501 292.451C168.055 292.451 166.614 292.48 165.17 292.554C164.069 292.612 162.387 292.384 161.456 293.071C160.488 293.783 160.555 295.241 160.707 296.271C161.505 301.719 163.456 306.548 167.536 310.408C173.818 316.35 181.019 319.369 189.54 320.714C195.527 321.659 201.053 320.347 205.459 316.09C208.68 322.066 211.122 328.679 212.347 335.353C212.952 338.646 213.136 341.9 213.03 345.253C212.962 347.401 212.844 349.544 212.613 351.682C212.513 352.611 212.039 354.016 212.403 354.894C212.829 355.925 214.269 356.025 214.915 355.145C215.453 354.414 215.355 352.977 215.465 352.112C215.648 350.674 215.817 349.234 215.938 347.789C216.136 345.451 216.281 343.106 216.271 340.758C216.246 335.484 215.073 330.189 213.469 325.182C210.392 315.576 205.399 307.04 197.634 300.342C192.859 296.223 187.394 294.556 181.195 293.66C177.334 293.102 173.411 292.451 169.501 292.451Z" fill="#ABC543"/>
<path fill-rule="evenodd" clip-rule="evenodd" d="M191.796 330.644C176.192 330.644 165.684 343.219 160.715 356.29C158.842 361.216 158.403 366.626 157.681 371.799C157.449 373.46 157.536 375.989 156.861 377.468C156.617 378.005 156.056 378.197 156.324 378.928C156.487 379.37 156.804 379.642 157.284 379.729C158.265 379.91 159.653 378.841 160.494 378.419C167.473 374.919 172.059 369.506 175.8 362.885C178.12 358.78 180.472 354.519 181.849 350.013C182.691 347.26 183.181 344.362 183.469 341.506C183.582 340.381 183.691 339.23 183.685 338.099C183.678 336.976 183.156 336.383 182.78 335.406C187.987 333.435 193.864 332.899 199.138 334.94C204.016 336.829 208.067 340.479 210.336 345.066C210.925 346.257 211.38 347.515 211.711 348.798C211.928 349.638 211.938 350.727 212.341 351.487C213.314 353.329 215.363 352.098 215.167 350.383C214.618 345.603 211.883 340.802 208.387 337.478C203.977 333.286 198.002 330.644 191.796 330.644Z" fill="#ABC543"/>
<path d="M373.409 54.5618H217.363C212.541 54.5618 208.633 58.4703 208.633 63.2916V375.385C208.633 380.206 212.541 384.115 217.363 384.115H373.409C378.23 384.115 382.139 380.206 382.139 375.385V63.2916C382.139 58.4703 378.23 54.5618 373.409 54.5618Z" fill="#99A080"/>
<path fill-rule="evenodd" clip-rule="evenodd" d="M294.84 363.381C303.88 363.381 311.209 356.052 311.209 347.013C311.209 337.973 303.88 330.644 294.84 330.644C285.8 330.644 278.472 337.973 278.472 347.013C278.472 356.052 285.8 363.381 294.84 363.381Z" fill="black"/>
<path fill-rule="evenodd" clip-rule="evenodd" d="M280.654 76.3864C281.86 76.3864 282.837 75.4098 282.837 74.204C282.837 72.9981 281.86 72.0215 280.654 72.0215C279.448 72.0215 278.472 72.9981 278.472 74.204C278.472 75.4098 279.448 76.3864 280.654 76.3864Z" fill="black"/>
<path d="M309.026 72.0215H290.475C289.27 72.0215 288.293 72.9986 288.293 74.204C288.293 75.4093 289.27 76.3864 290.475 76.3864H309.026C310.232 76.3864 311.209 75.4093 311.209 74.204C311.209 72.9986 310.232 72.0215 309.026 72.0215Z" fill="black"/>
<path d="M362.497 85.1162H228.275C225.864 85.1162 223.91 87.0705 223.91 89.4811V139.678C223.91 142.089 225.864 144.043 228.275 144.043H362.497C364.907 144.043 366.862 142.089 366.862 139.678V89.4811C366.862 87.0705 364.907 85.1162 362.497 85.1162Z" fill="black"/>
<mask id="mask4_63_1687" style="mask-type:luminance" maskUnits="userSpaceOnUse" x="233" y="102" width="81" height="25">
<path d="M313.391 102.794H233.731V126.365H313.391V102.794Z" fill="white"/>
</mask>
<g mask="url(#mask4_63_1687)">
<path d="M310.117 102.794H237.005C235.197 102.794 233.731 104.26 233.731 106.068V108.359C233.731 110.168 235.197 111.633 237.005 111.633H310.117C311.926 111.633 313.391 110.168 313.391 108.359V106.068C313.391 104.26 311.926 102.794 310.117 102.794Z" fill="#99A080"/>
<path d="M283.928 117.526H237.005C235.197 117.526 233.731 118.992 233.731 120.8V123.091C233.731 124.899 235.197 126.365 237.005 126.365H283.928C285.736 126.365 287.202 124.899 287.202 123.091V120.8C287.202 118.992 285.736 117.526 283.928 117.526Z" fill="#99A080"/>
</g>
<path fill-rule="evenodd" clip-rule="evenodd" d="M351.584 122.218C355.803 122.218 359.223 118.798 359.223 114.58C359.223 110.361 355.803 106.941 351.584 106.941C347.366 106.941 343.946 110.361 343.946 114.58C343.946 118.798 347.366 122.218 351.584 122.218Z" fill="#99A080"/>
<path fill-rule="evenodd" clip-rule="evenodd" d="M351.584 117.853C353.392 117.853 354.858 116.388 354.858 114.58C354.858 112.771 353.392 111.306 351.584 111.306C349.776 111.306 348.311 112.771 348.311 114.58C348.311 116.388 349.776 117.853 351.584 117.853Z" fill="#121212"/>
<path d="M362.497 152.773H228.275C225.864 152.773 223.91 154.727 223.91 157.138V194.24C223.91 196.65 225.864 198.605 228.275 198.605H362.497C364.907 198.605 366.862 196.65 366.862 194.24V157.138C366.862 154.727 364.907 152.773 362.497 152.773Z" fill="black"/>
<mask id="mask5_63_1687" style="mask-type:luminance" maskUnits="userSpaceOnUse" x="266" y="166" width="81" height="19">
<path d="M346.128 166.522H266.468V184.855H346.128V166.522Z" fill="white"/>
</mask>
<g mask="url(#mask5_63_1687)">
<path d="M342.855 166.522H269.742C267.934 166.522 266.468 167.988 266.468 169.796V170.123C266.468 171.931 267.934 173.397 269.742 173.397H342.855C344.663 173.397 346.128 171.931 346.128 170.123V169.796C346.128 167.988 344.663 166.522 342.855 166.522Z" fill="#99A080"/>
<path d="M316.665 177.98H269.742C267.934 177.98 266.468 179.446 266.468 181.254V181.581C266.468 183.389 267.934 184.855 269.742 184.855H316.665C318.473 184.855 319.939 183.389 319.939 181.581V181.254C319.939 179.446 318.473 177.98 316.665 177.98Z" fill="#99A080"/>
</g>
<path fill-rule="evenodd" clip-rule="evenodd" d="M246.826 188.783C254.058 188.783 259.921 182.92 259.921 175.689C259.921 168.457 254.058 162.594 246.826 162.594C239.594 162.594 233.731 168.457 233.731 175.689C233.731 182.92 239.594 188.783 246.826 188.783Z" fill="#E7E7E7"/>
<path d="M362.497 207.334H228.275C225.864 207.334 223.91 209.289 223.91 211.699V248.801C223.91 251.212 225.864 253.166 228.275 253.166H362.497C364.907 253.166 366.862 251.212 366.862 248.801V211.699C366.862 209.289 364.907 207.334 362.497 207.334Z" fill="black"/>
<mask id="mask6_63_1687" style="mask-type:luminance" maskUnits="userSpaceOnUse" x="233" y="221" width="81" height="19">
<path d="M313.391 221.084H233.731V239.417H313.391V221.084Z" fill="white"/>
</mask>
<g mask="url(#mask6_63_1687)">
<path d="M310.118 221.084H237.005C235.197 221.084 233.731 222.55 233.731 224.358V224.685C233.731 226.493 235.197 227.959 237.005 227.959H310.118C311.926 227.959 313.391 226.493 313.391 224.685V224.358C313.391 222.55 311.926 221.084 310.118 221.084Z" fill="#99A080"/>
<path d="M283.928 232.542H237.005C235.197 232.542 233.731 234.008 233.731 235.816V236.143C233.731 237.951 235.197 239.417 237.005 239.417H283.928C285.736 239.417 287.202 237.951 287.202 236.143V235.816C287.202 234.008 285.736 232.542 283.928 232.542Z" fill="#ABC543"/>
</g>
<path fill-rule="evenodd" clip-rule="evenodd" d="M351.584 237.889C355.803 237.889 359.223 234.469 359.223 230.25C359.223 226.032 355.803 222.612 351.584 222.612C347.366 222.612 343.946 226.032 343.946 230.25C343.946 234.469 347.366 237.889 351.584 237.889Z" fill="#99A080"/>
<path fill-rule="evenodd" clip-rule="evenodd" d="M351.584 233.524C353.393 233.524 354.858 232.058 354.858 230.25C354.858 228.442 353.393 226.977 351.584 226.977C349.776 226.977 348.311 228.442 348.311 230.25C348.311 232.058 349.776 233.524 351.584 233.524Z" fill="#121212"/>
<path d="M362.497 261.896H228.275C225.864 261.896 223.91 263.85 223.91 266.261V303.363C223.91 305.774 225.864 307.728 228.275 307.728H362.497C364.907 307.728 366.862 305.774 366.862 303.363V266.261C366.862 263.85 364.907 261.896 362.497 261.896Z" fill="black"/>
<mask id="mask7_63_1687" style="mask-type:luminance" maskUnits="userSpaceOnUse" x="266" y="275" width="81" height="19">
<path d="M346.128 275.646H266.468V293.978H346.128V275.646Z" fill="white"/>
</mask>
<g mask="url(#mask7_63_1687)">
<path d="M342.855 275.646H269.742C267.934 275.646 266.468 277.111 266.468 278.919V279.247C266.468 281.055 267.934 282.52 269.742 282.52H342.855C344.663 282.52 346.128 281.055 346.128 279.247V278.919C346.128 277.111 344.663 275.646 342.855 275.646Z" fill="#99A080"/>
<path d="M316.665 287.104H269.742C267.934 287.104 266.468 288.569 266.468 290.377V290.705C266.468 292.513 267.934 293.978 269.742 293.978H316.665C318.473 293.978 319.939 292.513 319.939 290.705V290.377C319.939 288.569 318.473 287.104 316.665 287.104Z" fill="#99A080"/>
</g>
<path fill-rule="evenodd" clip-rule="evenodd" d="M246.826 297.907C254.058 297.907 259.921 292.044 259.921 284.812C259.921 277.58 254.058 271.717 246.826 271.717C239.594 271.717 233.731 277.58 233.731 284.812C233.731 292.044 239.594 297.907 246.826 297.907Z" fill="#E7E7E7"/>
<path d="M637.488 81.8425H289.384C284.563 81.8425 280.654 85.751 280.654 90.5724V450.68C280.654 455.501 284.563 459.41 289.384 459.41H637.488C642.309 459.41 646.218 455.501 646.218 450.68V90.5724C646.218 85.751 642.309 81.8425 637.488 81.8425Z" fill="#121212"/>
<path d="M620.028 128.766H561.101C556.28 128.766 552.371 132.674 552.371 137.495V208.426C552.371 213.247 556.28 217.156 561.101 217.156H620.028C624.849 217.156 628.758 213.247 628.758 208.426V137.495C628.758 132.674 624.849 128.766 620.028 128.766Z" fill="black"/>
<path fill-rule="evenodd" clip-rule="evenodd" d="M590.565 180.054C600.208 180.054 608.024 172.237 608.024 162.594C608.024 152.951 600.208 145.134 590.565 145.134C580.921 145.134 573.105 152.951 573.105 162.594C573.105 172.237 580.921 180.054 590.565 180.054Z" fill="#99A080"/>
<path d="M614.572 184.419H566.558C564.75 184.419 563.284 185.884 563.284 187.692C563.284 189.5 564.75 190.966 566.558 190.966H614.572C616.38 190.966 617.846 189.5 617.846 187.692C617.846 185.884 616.38 184.419 614.572 184.419Z" fill="#99A080"/>
<path d="M605.842 195.331H575.287C573.479 195.331 572.014 196.797 572.014 198.605C572.014 200.413 573.479 201.878 575.287 201.878H605.842C607.65 201.878 609.116 200.413 609.116 198.605C609.116 196.797 607.65 195.331 605.842 195.331Z" fill="#99A080"/>
<path d="M280.654 90.5724C280.654 85.7513 284.563 81.8425 289.384 81.8425H637.488C642.309 81.8425 646.218 85.7513 646.218 90.5724V111.306H280.654V90.5724Z" fill="#E7E7E7"/>
<path fill-rule="evenodd" clip-rule="evenodd" d="M294.84 101.485C297.251 101.485 299.205 99.5304 299.205 97.1198C299.205 94.7093 297.251 92.7549 294.84 92.7549C292.43 92.7549 290.475 94.7093 290.475 97.1198C290.475 99.5304 292.43 101.485 294.84 101.485Z" fill="#121212"/>
<path fill-rule="evenodd" clip-rule="evenodd" d="M307.935 101.485C310.345 101.485 312.3 99.5304 312.3 97.1198C312.3 94.7093 310.345 92.7549 307.935 92.7549C305.524 92.7549 303.57 94.7093 303.57 97.1198C303.57 99.5304 305.524 101.485 307.935 101.485Z" fill="#121212"/>
<path fill-rule="evenodd" clip-rule="evenodd" d="M321.03 101.485C323.44 101.485 325.395 99.5304 325.395 97.1198C325.395 94.7093 323.44 92.7549 321.03 92.7549C318.619 92.7549 316.665 94.7093 316.665 97.1198C316.665 99.5304 318.619 101.485 321.03 101.485Z" fill="#121212"/>
<path d="M620.028 225.885H561.101C556.28 225.885 552.371 229.794 552.371 234.615V428.855C552.371 433.676 556.28 437.585 561.101 437.585H620.028C624.849 437.585 628.758 433.676 628.758 428.855V234.615C628.758 229.794 624.849 225.885 620.028 225.885Z" fill="black"/>
<path d="M604.751 245.528H576.379C573.968 245.528 572.014 247.482 572.014 249.893V269.535C572.014 271.946 573.968 273.9 576.379 273.9H604.751C607.161 273.9 609.116 271.946 609.116 269.535V249.893C609.116 247.482 607.161 245.528 604.751 245.528Z" fill="#99A080"/>
<path d="M604.751 282.63H576.379C573.968 282.63 572.014 284.584 572.014 286.995V305.546C572.014 307.956 573.968 309.91 576.379 309.91H604.751C607.161 309.91 609.116 307.956 609.116 305.546V286.995C609.116 284.584 607.161 282.63 604.751 282.63Z" fill="#ABC543"/>
<path d="M604.751 318.64H576.379C573.968 318.64 572.014 320.595 572.014 323.005V341.556C572.014 343.967 573.968 345.921 576.379 345.921H604.751C607.161 345.921 609.116 343.967 609.116 341.556V323.005C609.116 320.595 607.161 318.64 604.751 318.64Z" fill="#99A080"/>
<path d="M604.751 390.662H576.379C573.968 390.662 572.014 392.616 572.014 395.027V413.578C572.014 415.988 573.968 417.943 576.379 417.943H604.751C607.161 417.943 609.116 415.988 609.116 413.578V395.027C609.116 392.616 607.161 390.662 604.751 390.662Z" fill="#99A080"/>
<path d="M604.751 354.651H576.379C573.968 354.651 572.014 356.605 572.014 359.016V377.567C572.014 379.978 573.968 381.932 576.379 381.932H604.751C607.161 381.932 609.116 379.978 609.116 377.567V359.016C609.116 356.605 607.161 354.651 604.751 354.651Z" fill="#E7E7E7"/>
<path d="M539.277 129.857H302.479C300.068 129.857 298.114 131.811 298.114 134.222V176.78C298.114 179.191 300.068 181.145 302.479 181.145H539.277C541.687 181.145 543.642 179.191 543.642 176.78V134.222C543.642 131.811 541.687 129.857 539.277 129.857Z" fill="black"/>
<mask id="mask8_63_1687" style="mask-type:luminance" maskUnits="userSpaceOnUse" x="307" y="145" width="184" height="21">
<path d="M490.171 145.243H307.935V165.758H490.171V145.243Z" fill="white"/>
</mask>
<g mask="url(#mask8_63_1687)">
<path d="M486.897 145.243H311.209C309.401 145.243 307.935 146.709 307.935 148.517V149.663C307.935 151.471 309.401 152.936 311.209 152.936H486.897C488.705 152.936 490.171 151.471 490.171 149.663V148.517C490.171 146.709 488.705 145.243 486.897 145.243Z" fill="#99A080"/>
<path d="M426.984 158.065H311.209C309.401 158.065 307.935 159.531 307.935 161.339V162.485C307.935 164.293 309.401 165.758 311.209 165.758H426.984C428.792 165.758 430.258 164.293 430.258 162.485V161.339C430.258 159.531 428.792 158.065 426.984 158.065Z" fill="#99A080"/>
</g>
<path fill-rule="evenodd" clip-rule="evenodd" d="M517.402 163.14C521.62 163.14 525.04 159.72 525.04 155.501C525.04 151.282 521.62 147.862 517.402 147.862C513.183 147.862 509.763 151.282 509.763 155.501C509.763 159.72 513.183 163.14 517.402 163.14Z" fill="#99A080"/>
<path fill-rule="evenodd" clip-rule="evenodd" d="M517.402 158.775C519.21 158.775 520.675 157.309 520.675 155.501C520.675 153.693 519.21 152.227 517.402 152.227C515.593 152.227 514.128 153.693 514.128 155.501C514.128 157.309 515.593 158.775 517.402 158.775Z" fill="#121212"/>
<path d="M539.277 189.875H302.479C300.068 189.875 298.114 191.829 298.114 194.24V228.068C298.114 230.479 300.068 232.433 302.479 232.433H539.277C541.687 232.433 543.642 230.479 543.642 228.068V194.24C543.642 191.829 541.687 189.875 539.277 189.875Z" fill="black"/>
<mask id="mask9_63_1687" style="mask-type:luminance" maskUnits="userSpaceOnUse" x="307" y="202" width="184" height="18">
<path d="M490.171 202.642H307.935V219.665H490.171V202.642Z" fill="white"/>
</mask>
<g mask="url(#mask9_63_1687)">
<path d="M486.979 202.642H311.127C309.364 202.642 307.935 204.071 307.935 205.834C307.935 207.597 309.364 209.026 311.127 209.026H486.979C488.742 209.026 490.171 207.597 490.171 205.834C490.171 204.071 488.742 202.642 486.979 202.642Z" fill="#99A080"/>
<path d="M427.066 213.282H311.127C309.364 213.282 307.935 214.711 307.935 216.474C307.935 218.236 309.364 219.665 311.127 219.665H427.066C428.829 219.665 430.258 218.236 430.258 216.474C430.258 214.711 428.829 213.282 427.066 213.282Z" fill="#99A080"/>
</g>
<path fill-rule="evenodd" clip-rule="evenodd" d="M517.402 218.793C521.62 218.793 525.04 215.373 525.04 211.154C525.04 206.935 521.62 203.515 517.402 203.515C513.183 203.515 509.763 206.935 509.763 211.154C509.763 215.373 513.183 218.793 517.402 218.793Z" fill="#99A080"/>
<path fill-rule="evenodd" clip-rule="evenodd" d="M517.402 214.428C519.21 214.428 520.675 212.962 520.675 211.154C520.675 209.346 519.21 207.88 517.402 207.88C515.593 207.88 514.128 209.346 514.128 211.154C514.128 212.962 515.593 214.428 517.402 214.428Z" fill="#121212"/>
<path d="M539.277 241.163H302.479C300.068 241.163 298.114 243.117 298.114 245.528V279.356C298.114 281.767 300.068 283.721 302.479 283.721H539.277C541.687 283.721 543.642 281.767 543.642 279.356V245.528C543.642 243.117 541.687 241.163 539.277 241.163Z" fill="black"/>
<mask id="mask10_63_1687" style="mask-type:luminance" maskUnits="userSpaceOnUse" x="307" y="253" width="184" height="18">
<path d="M490.171 253.93H307.935V270.953H490.171V253.93Z" fill="white"/>
</mask>
<g mask="url(#mask10_63_1687)">
<path d="M486.979 253.93H311.127C309.364 253.93 307.935 255.359 307.935 257.122C307.935 258.885 309.364 260.314 311.127 260.314H486.979C488.742 260.314 490.171 258.885 490.171 257.122C490.171 255.359 488.742 253.93 486.979 253.93Z" fill="#99A080"/>
<path d="M427.066 264.57H311.127C309.364 264.57 307.935 265.999 307.935 267.762C307.935 269.524 309.364 270.953 311.127 270.953H427.066C428.829 270.953 430.258 269.524 430.258 267.762C430.258 265.999 428.829 264.57 427.066 264.57Z" fill="#99A080"/>
</g>
<path fill-rule="evenodd" clip-rule="evenodd" d="M517.402 270.081C521.62 270.081 525.04 266.661 525.04 262.442C525.04 258.223 521.62 254.803 517.402 254.803C513.183 254.803 509.763 258.223 509.763 262.442C509.763 266.661 513.183 270.081 517.402 270.081Z" fill="#99A080"/>
<path fill-rule="evenodd" clip-rule="evenodd" d="M517.402 265.716C519.21 265.716 520.675 264.25 520.675 262.442C520.675 260.634 519.21 259.168 517.402 259.168C515.593 259.168 514.128 260.634 514.128 262.442C514.128 264.25 515.593 265.716 517.402 265.716Z" fill="#ABC543"/>
<path d="M539.277 395.027H302.479C300.068 395.027 298.114 396.981 298.114 399.392V433.22C298.114 435.631 300.068 437.585 302.479 437.585H539.277C541.687 437.585 543.642 435.631 543.642 433.22V399.392C543.642 396.981 541.687 395.027 539.277 395.027Z" fill="black"/>
<mask id="mask11_63_1687" style="mask-type:luminance" maskUnits="userSpaceOnUse" x="307" y="407" width="184" height="18">
<path d="M490.171 407.794H307.935V424.817H490.171V407.794Z" fill="white"/>
</mask>
<g mask="url(#mask11_63_1687)">
<path d="M486.979 407.794H311.127C309.364 407.794 307.935 409.223 307.935 410.986C307.935 412.749 309.364 414.178 311.127 414.178H486.979C488.742 414.178 490.171 412.749 490.171 410.986C490.171 409.223 488.742 407.794 486.979 407.794Z" fill="#99A080"/>
<path d="M427.066 418.434H311.127C309.364 418.434 307.935 419.863 307.935 421.626C307.935 423.388 309.364 424.817 311.127 424.817H427.066C428.829 424.817 430.258 423.388 430.258 421.626C430.258 419.863 428.829 418.434 427.066 418.434Z" fill="#99A080"/>
</g>
<path fill-rule="evenodd" clip-rule="evenodd" d="M517.402 423.945C521.62 423.945 525.04 420.525 525.04 416.306C525.04 412.087 521.62 408.667 517.402 408.667C513.183 408.667 509.763 412.087 509.763 416.306C509.763 420.525 513.183 423.945 517.402 423.945Z" fill="#99A080"/>
<path fill-rule="evenodd" clip-rule="evenodd" d="M517.402 419.58C519.21 419.58 520.675 418.114 520.675 416.306C520.675 414.498 519.21 413.032 517.402 413.032C515.593 413.032 514.128 414.498 514.128 416.306C514.128 418.114 515.593 419.58 517.402 419.58Z" fill="#121212"/>
<path d="M539.277 343.739H302.479C300.068 343.739 298.114 345.693 298.114 348.104V381.932C298.114 384.343 300.068 386.297 302.479 386.297H539.277C541.687 386.297 543.642 384.343 543.642 381.932V348.104C543.642 345.693 541.687 343.739 539.277 343.739Z" fill="black"/>
<mask id="mask12_63_1687" style="mask-type:luminance" maskUnits="userSpaceOnUse" x="307" y="356" width="184" height="18">
<path d="M490.171 356.506H307.935V373.529H490.171V356.506Z" fill="white"/>
</mask>
<g mask="url(#mask12_63_1687)">
<path d="M486.979 356.506H311.127C309.364 356.506 307.935 357.935 307.935 359.698C307.935 361.461 309.364 362.89 311.127 362.89H486.979C488.742 362.89 490.171 361.461 490.171 359.698C490.171 357.935 488.742 356.506 486.979 356.506Z" fill="#99A080"/>
<path d="M427.066 367.146H311.127C309.364 367.146 307.935 368.575 307.935 370.338C307.935 372.1 309.364 373.529 311.127 373.529H427.066C428.829 373.529 430.258 372.1 430.258 370.338C430.258 368.575 428.829 367.146 427.066 367.146Z" fill="#99A080"/>
</g>
<path fill-rule="evenodd" clip-rule="evenodd" d="M517.402 372.657C521.62 372.657 525.04 369.237 525.04 365.018C525.04 360.799 521.62 357.379 517.402 357.379C513.183 357.379 509.763 360.799 509.763 365.018C509.763 369.237 513.183 372.657 517.402 372.657Z" fill="#99A080"/>
<path fill-rule="evenodd" clip-rule="evenodd" d="M517.402 368.292C519.21 368.292 520.675 366.826 520.675 365.018C520.675 363.21 519.21 361.744 517.402 361.744C515.593 361.744 514.128 363.21 514.128 365.018C514.128 366.826 515.593 368.292 517.402 368.292Z" fill="#121212"/>
<path d="M539.277 292.451H302.479C300.068 292.451 298.114 294.405 298.114 296.816V330.644C298.114 333.055 300.068 335.009 302.479 335.009H539.277C541.687 335.009 543.642 333.055 543.642 330.644V296.816C543.642 294.405 541.687 292.451 539.277 292.451Z" fill="black"/>
<mask id="mask13_63_1687" style="mask-type:luminance" maskUnits="userSpaceOnUse" x="307" y="305" width="184" height="18">
<path d="M490.171 305.218H307.935V322.241H490.171V305.218Z" fill="white"/>
</mask>
<g mask="url(#mask13_63_1687)">
<path d="M486.979 305.218H311.127C309.364 305.218 307.935 306.647 307.935 308.41C307.935 310.173 309.364 311.602 311.127 311.602H486.979C488.742 311.602 490.171 310.173 490.171 308.41C490.171 306.647 488.742 305.218 486.979 305.218Z" fill="#99A080"/>
<path d="M427.066 315.858H311.127C309.364 315.858 307.935 317.287 307.935 319.05C307.935 320.812 309.364 322.241 311.127 322.241H427.066C428.829 322.241 430.258 320.812 430.258 319.05C430.258 317.287 428.829 315.858 427.066 315.858Z" fill="#99A080"/>
</g>
<path fill-rule="evenodd" clip-rule="evenodd" d="M517.402 321.368C521.62 321.368 525.04 317.949 525.04 313.73C525.04 309.511 521.62 306.091 517.402 306.091C513.183 306.091 509.763 309.511 509.763 313.73C509.763 317.949 513.183 321.368 517.402 321.368Z" fill="#99A080"/>
<path fill-rule="evenodd" clip-rule="evenodd" d="M517.402 317.004C519.21 317.004 520.675 315.538 520.675 313.73C520.675 311.922 519.21 310.456 517.402 310.456C515.593 310.456 514.128 311.922 514.128 313.73C514.128 315.538 515.593 317.004 517.402 317.004Z" fill="#121212"/>
<path fill-rule="evenodd" clip-rule="evenodd" d="M736.775 267.763C732.47 264.844 726.746 264.079 721.596 264.079C701.478 264.079 682.568 271.543 666.232 282.665C657.28 288.758 649.273 296.519 642.204 304.598C638.123 309.263 634.485 314.308 631.908 319.92C630.17 323.708 628.977 327.655 628.168 331.725C627.183 336.686 626.4 341.747 626.046 346.791C625.906 348.777 624.753 359.315 628.055 359.494C628.035 359.754 628.031 360.001 628.052 360.223C620.881 371.434 616.452 384.573 612.343 397.029C608.77 407.87 605.584 418.8 603.517 430.015C600.795 444.778 599.007 459.765 598.157 474.742C597.975 477.96 597.85 481.18 597.742 484.402C597.65 487.151 597.557 489.9 597.467 492.65C597.366 495.73 596.824 499.277 597.314 502.339C597.74 505.006 600.048 504.602 600.151 501.948C600.274 498.743 600.254 495.532 600.394 492.325C600.581 488.068 600.773 483.811 600.981 479.555C602.432 449.991 607.871 420.862 617.912 392.936C621.976 381.635 626.631 370.938 632.615 360.484C637.876 351.292 644.205 342.393 650.674 334.107C656.961 326.052 663.498 318.185 671.201 311.362C677.453 305.825 684.33 301.001 691.399 296.512C700.377 290.812 709.338 285.25 719.063 280.874C724.119 278.6 729.269 276.564 734.364 274.38C735.281 273.988 736.263 273.607 737.145 273.152C740.085 271.636 739.118 269.352 736.775 267.763Z" fill="#D9FB52"/>
<path fill-rule="evenodd" clip-rule="evenodd" d="M655.84 371.02C663.999 371.02 671.26 372.08 678.778 375.322C685.267 378.121 691.182 381.826 696.924 385.859C705 391.533 711.362 398.135 715.815 406.883C718.476 412.109 720.428 419.504 718.641 425.205C716.537 431.918 710.757 437.518 703.146 436.335C698.44 435.604 694.126 432.489 690.549 429.557C686.269 426.048 682.844 421.831 680.015 417.146C675.401 409.504 672.691 400.866 668.771 392.88C666.912 389.09 665.114 385.274 662.886 381.672C661.784 379.889 660.61 378.123 658.937 376.797C658.042 376.087 654.269 374.861 655.711 373.269C634.552 373.546 615.807 389.797 611.744 409.912C611.367 411.787 611.071 413.677 610.758 415.564C610.561 416.754 610.641 421.148 609.576 421.908C607.228 423.587 608.214 418.487 608.316 417.753C608.577 415.855 608.854 413.96 609.145 412.066C610.732 401.772 615.315 392.202 622.958 384.86C631.698 376.465 643.491 371.02 655.84 371.02Z" fill="#ABC543"/>
<path fill-rule="evenodd" clip-rule="evenodd" d="M67.7955 345.633C88.1649 379.806 111.889 412.895 126.136 450.257C125.562 445.853 124.953 441.453 124.271 437.061C120.657 413.773 116.163 390.655 111.443 367.566C109.039 355.81 106.495 344.096 103.887 332.383C102.485 326.092 101.099 319.798 99.6673 313.514C99.3203 311.99 99.0224 309.331 98.5891 306.637C112.435 352.073 125.787 397.542 135.554 444.069C136.835 450.176 137.926 456.271 138.82 462.356C139.125 460.968 139.426 459.58 139.755 458.195C143.707 441.601 149.635 425.138 156.693 409.621C160.067 402.202 163.942 394.944 168.506 388.18C171.352 383.965 178.063 378.954 180.658 374.636C166.462 400.675 161.335 433.255 153.138 461.563C151.138 468.471 149.124 475.368 147.151 482.276C159.513 457.486 178.692 437.117 205.359 428.291C173.08 449.618 153.719 486.968 140.673 525.167C140.63 525.62 140.579 526.073 140.534 526.527C144.374 519.241 149.209 512.65 155.763 508.035C169.792 498.153 185.353 501.031 198.961 509.508C188.281 502.72 168.98 508.901 159.994 515.801C153.561 520.74 148.064 527.366 143.289 533.832C142.146 535.381 140.584 537.19 138.935 539.118C136.624 554.123 132.857 569.026 127.523 583.81C128.404 579.567 127.768 572.78 128.012 569.617C128.038 569.275 128.06 568.931 128.086 568.591C127.276 571.827 126.492 575.027 125.738 578.176C127.237 572.168 128.051 565.896 128.688 559.559C128.851 556.836 129.012 554.112 129.18 551.39C129.126 546.221 128.913 541.033 128.553 535.835C127.278 530.785 125.848 526.021 124.669 522.059C120.416 507.762 114.18 494.067 106.505 481.29C99.5025 469.63 91.1201 459.069 81.4435 449.518C76.2268 444.369 70.7675 439.467 65.385 434.497C63.4386 432.7 59.9597 428.281 56.9509 425.978C78.8635 438.059 101.418 451.127 117.403 470.593C115.528 463.396 113.493 456.301 111.34 449.348C100.416 414.073 86.623 377.516 67.7955 345.633Z" fill="#D9FB52"/>
<path fill-rule="evenodd" clip-rule="evenodd" d="M89.688 539.07C89.688 578.244 92.7902 610 134.429 610C176.067 610 179.169 578.244 179.169 539.07" fill="#E7E7E7"/>
<path d="M560.01 38.1931C560.01 36.3851 558.544 34.9194 556.736 34.9194C554.928 34.9194 553.463 36.3851 553.463 38.1931V58.9266C553.463 60.7346 554.928 62.2003 556.736 62.2003C558.544 62.2003 560.01 60.7346 560.01 58.9266V38.1931Z" fill="#99A080"/>
<path d="M575.287 20.7334C575.287 18.9254 573.822 17.4597 572.014 17.4597C570.206 17.4597 568.74 18.9254 568.74 20.7334V58.9266C568.74 60.7346 570.206 62.2003 572.014 62.2003C573.822 62.2003 575.287 60.7346 575.287 58.9266V20.7334Z" fill="#99A080"/>
<path d="M590.565 12.0037C590.565 10.1957 589.099 8.72998 587.291 8.72998C585.483 8.72998 584.017 10.1957 584.017 12.0037V58.9268C584.017 60.7348 585.483 62.2005 587.291 62.2005C589.099 62.2005 590.565 60.7348 590.565 58.9268V12.0037Z" fill="#99A080"/>
<path d="M605.842 20.7334C605.842 18.9254 604.376 17.4597 602.568 17.4597C600.76 17.4597 599.295 18.9254 599.295 20.7334V58.9266C599.295 60.7346 600.76 62.2003 602.568 62.2003C604.376 62.2003 605.842 60.7346 605.842 58.9266V20.7334Z" fill="#99A080"/>
<path d="M621.119 3.2737C621.119 1.46569 619.654 0 617.846 0C616.038 0 614.572 1.46569 614.572 3.2737V58.9267C614.572 60.7347 616.038 62.2004 617.846 62.2004C619.654 62.2004 621.119 60.7347 621.119 58.9267V3.2737Z" fill="#E7E7E7"/>
<path fill-rule="evenodd" clip-rule="evenodd" d="M16.5753 334.197C16.5753 322.042 26.3985 312.093 38.3999 312.093V334.197L23.4849 350.286C19.2422 346.352 16.5753 340.582 16.5753 334.197Z" fill="#121212"/>
<path fill-rule="evenodd" clip-rule="evenodd" d="M37.8224 333.918H59.8624C59.8624 339.615 57.5383 344.953 53.8642 348.833C49.8232 353.075 44.0685 355.742 37.8224 355.742C32.069 355.742 26.8025 353.441 22.7604 349.803L37.8224 333.918Z" fill="#ABC543"/>
<path fill-rule="evenodd" clip-rule="evenodd" d="M60.2246 333.918C60.2246 321.916 50.4013 312.093 38.3999 312.093V333.918H60.2246ZM27.4876 312.093L36.2175 331.735L16.5753 323.005C18.5176 317.914 22.8793 314.035 27.4876 312.093Z" fill="#E7E7E7"/>
<path fill-rule="evenodd" clip-rule="evenodd" d="M726.713 343.934C724.617 346.16 721.647 347.558 718.343 347.558C711.995 347.558 706.849 342.428 706.849 336.1C706.849 329.772 711.995 324.642 718.343 324.642V303.363C700.284 303.363 685.502 318.098 685.502 336.1C685.502 354.102 700.284 368.837 718.343 368.837C727.829 368.837 736.403 364.837 742.246 358.473L726.713 343.934Z" fill="#121212"/>
<path fill-rule="evenodd" clip-rule="evenodd" d="M718.239 303.363V324.642C724.567 324.642 729.697 329.772 729.697 336.1H750.976C750.976 318.098 736.241 303.363 718.239 303.363Z" fill="#ABC543"/>
<path fill-rule="evenodd" clip-rule="evenodd" d="M729.257 336.1C729.257 339.818 727.506 343.122 724.786 345.257L738.167 362.29C745.955 356.192 750.976 346.739 750.976 336.1H729.257Z" fill="#E7E7E7"/>
<path fill-rule="evenodd" clip-rule="evenodd" d="M518.599 43.1081C516.986 44.8148 514.701 45.8865 512.159 45.8865C507.276 45.8865 503.318 41.9536 503.318 37.1021C503.318 32.2505 507.276 28.3176 512.159 28.3176V12.0037C498.268 12.0037 486.897 23.3004 486.897 37.1021C486.897 50.9037 498.268 62.2004 512.159 62.2004C519.457 62.2004 526.051 59.133 530.547 54.2541L518.599 43.1081Z" fill="#121212"/>
<path fill-rule="evenodd" clip-rule="evenodd" d="M511.996 12.0037V28.3176C516.847 28.3176 520.78 32.2505 520.78 37.1021H537.094C537.094 23.3004 525.798 12.0037 511.996 12.0037Z" fill="#ABC543"/>
<path fill-rule="evenodd" clip-rule="evenodd" d="M520.805 37.1021C520.805 39.8904 519.491 42.369 517.452 43.9693L527.487 56.7443C533.329 52.1707 537.094 45.0812 537.094 37.1021H520.805Z" fill="#E7E7E7"/>
<path fill-rule="evenodd" clip-rule="evenodd" d="M121.341 62.1849C121.337 62.1956 121.333 62.2064 121.326 62.2193C121.333 62.2085 121.341 62.1655 121.341 62.1849Z" fill="#E7E7E7"/>
<path fill-rule="evenodd" clip-rule="evenodd" d="M121.331 62.201C121.331 62.2031 121.329 62.2073 121.329 62.2116C121.329 62.201 121.348 62.1693 121.331 62.201Z" fill="#E7E7E7"/>
<path fill-rule="evenodd" clip-rule="evenodd" d="M121.407 62.0168C121.392 62.0605 121.372 62.102 121.354 62.1456C121.363 62.1238 121.372 62.1063 121.381 62.0845C121.154 62.6519 121.298 62.2831 121.407 62.0168Z" fill="#E7E7E7"/>
<path fill-rule="evenodd" clip-rule="evenodd" d="M121.358 62.1489C121.349 62.1686 121.34 62.1904 121.332 62.21C121.268 62.3323 121.358 62.1489 121.358 62.1489Z" fill="#E7E7E7"/>
<path fill-rule="evenodd" clip-rule="evenodd" d="M121.323 62.2172C121.383 62.1183 121.31 62.243 121.323 62.2172Z" fill="#E7E7E7"/>
<path fill-rule="evenodd" clip-rule="evenodd" d="M121.332 62.202L121.336 62.198C121.334 62.2 121.334 62.202 121.332 62.202Z" fill="#E7E7E7"/>
<path d="M168.257 5.45605H73.3194C70.9087 5.45605 68.9545 7.4103 68.9545 9.82099V69.8389C68.9545 72.2496 70.9087 74.2038 73.3194 74.2038H168.257C170.668 74.2038 172.622 72.2496 172.622 69.8389V9.82099C172.622 7.4103 170.668 5.45605 168.257 5.45605Z" fill="#99A080"/>
<path fill-rule="evenodd" clip-rule="evenodd" d="M108.239 25.0984L77.6843 74.2039H138.793L108.239 25.0984Z" fill="#ABC543"/>
<path fill-rule="evenodd" clip-rule="evenodd" d="M138.248 38.1931L111.513 74.2038H164.983L138.248 38.1931Z" fill="#E7E7E7"/>
<path fill-rule="evenodd" clip-rule="evenodd" d="M149.706 38.193C155.13 38.193 159.527 33.796 159.527 28.3719C159.527 22.9478 155.13 18.5508 149.706 18.5508C144.281 18.5508 139.885 22.9478 139.885 28.3719C139.885 33.796 144.281 38.193 149.706 38.193Z" fill="black"/>
<path fill-rule="evenodd" clip-rule="evenodd" d="M641.845 528.142C641.849 528.153 641.853 528.164 641.86 528.176C641.853 528.166 641.845 528.123 641.845 528.142Z" fill="#E7E7E7"/>
<path fill-rule="evenodd" clip-rule="evenodd" d="M641.854 528.158C641.854 528.16 641.857 528.164 641.857 528.169C641.857 528.158 641.837 528.126 641.854 528.158Z" fill="#E7E7E7"/>
<path fill-rule="evenodd" clip-rule="evenodd" d="M641.779 527.974C641.795 528.018 641.814 528.059 641.832 528.103C641.823 528.081 641.814 528.063 641.805 528.042C642.032 528.609 641.888 528.24 641.779 527.974Z" fill="#E7E7E7"/>
<path fill-rule="evenodd" clip-rule="evenodd" d="M641.828 528.106C641.837 528.126 641.846 528.148 641.855 528.167C641.918 528.289 641.828 528.106 641.828 528.106Z" fill="#E7E7E7"/>
<path fill-rule="evenodd" clip-rule="evenodd" d="M641.863 528.174C641.876 528.2 641.803 528.075 641.863 528.174Z" fill="#E7E7E7"/>
<path fill-rule="evenodd" clip-rule="evenodd" d="M641.854 528.159L641.85 528.155C641.852 528.157 641.852 528.159 641.854 528.159Z" fill="#E7E7E7"/>
<path d="M568.74 444.132H714.965C717.376 444.132 719.33 446.087 719.33 448.497V542.343C719.33 544.754 717.376 546.708 714.965 546.708H568.74C566.329 546.708 564.375 544.754 564.375 542.343V448.497C564.375 446.087 566.329 444.132 568.74 444.132Z" fill="#99A080"/>
<path fill-rule="evenodd" clip-rule="evenodd" d="M661.794 473.596L706.594 546.708H616.993L661.794 473.596Z" fill="#ABC543"/>
<path fill-rule="evenodd" clip-rule="evenodd" d="M615.602 493.18L655.208 546.708H575.995L615.602 493.18Z" fill="#E7E7E7"/>
<path fill-rule="evenodd" clip-rule="evenodd" d="M598.749 493.238C590.612 493.238 584.017 486.642 584.017 478.506C584.017 470.37 590.612 463.775 598.749 463.775C606.885 463.775 613.48 470.37 613.48 478.506C613.48 486.642 606.885 493.238 598.749 493.238Z" fill="black"/>
<path fill-rule="evenodd" clip-rule="evenodd" d="M263.662 366.134C270.788 370.431 277.79 372.508 281.076 371.661C289.318 369.535 290.077 339.362 283.699 327.467C277.322 315.573 244.539 310.388 242.887 333.956C242.312 342.135 245.745 349.435 250.816 355.392L241.724 397.801H268.135L263.662 366.134Z" fill="#F1CCAB"/>
<path fill-rule="evenodd" clip-rule="evenodd" d="M231.372 326.111C230.518 325.265 230.053 324.057 229.65 322.911C229.233 321.72 228.826 320.517 228.549 319.277C227.995 316.8 227.989 313.951 229.755 312.028C231.171 310.486 233.296 309.793 235.257 309.644C236.564 309.544 237.906 309.726 239.158 310.138C240.4 310.547 241.472 311.362 242.676 311.867C242.722 309.198 243.179 306.405 244.532 304.126C245.834 301.933 247.911 300.702 250.275 300.377C252.702 300.043 255.099 300.611 257.271 301.787C257.814 302.081 258.354 302.389 258.87 302.739C259.302 303.031 259.75 303.384 260.257 303.502C260.822 303.634 261.101 303.308 261.469 302.896C261.899 302.413 262.384 301.987 262.897 301.609C265.166 299.94 268.143 299.254 270.771 300.255C271.982 300.715 273.161 301.498 273.982 302.576C274.715 303.538 275.237 305.064 276.248 305.733C276.677 306.018 276.98 305.641 277.37 305.362C277.957 304.944 278.517 304.482 279.11 304.075C279.944 303.503 280.847 303.076 281.814 302.852C283.23 302.524 285.186 302.601 285.591 304.456C285.743 305.153 285.627 305.898 285.577 306.601C285.51 307.565 285.44 308.529 285.356 309.492C285.293 310.223 285.213 310.929 285.074 311.647C285.001 312.029 284.771 312.742 284.934 313.126C285.14 313.605 286.085 313.333 286.489 313.35C287.288 313.382 288.089 313.522 288.827 313.863C289.399 314.128 290 314.517 290.241 315.173C290.39 315.575 290.351 315.99 290.28 316.404C290.196 316.902 290.293 317.165 290.356 317.668C291.428 317.14 295.141 315.966 295.609 317.888C295.764 318.528 295.41 319.251 295.139 319.791C294.665 320.738 294.044 321.603 293.408 322.429C292.083 324.15 290.501 325.635 288.798 326.905C290.793 327.793 291.314 330.41 289.586 331.97C288.824 332.659 287.798 332.812 286.836 332.768C286.484 332.752 285.977 332.616 285.7 332.678C285.551 332.711 285.391 332.837 285.184 332.852C283.826 332.945 282.294 332.617 280.967 332.316C278.603 331.779 276.363 330.657 274.535 328.95C274.066 328.512 273.679 328.26 273.048 328.266C272.495 328.272 271.952 328.424 271.399 328.437C269.937 328.475 268.618 327.759 267.26 327.283C267.178 329.119 266.655 331.141 265.904 332.792C265.293 334.139 264.016 334.335 262.76 334.452C258.744 334.831 254.715 334.408 250.695 334.414C254.587 335.295 258.608 335.657 262.465 336.693C264.209 337.161 262.877 338.338 262.132 339.153C260.904 340.495 259.991 342.158 259.358 343.91C257.455 341.427 254.09 339.791 251.109 340.554C247.815 341.396 245.495 345.854 247.602 349.059C248.824 350.919 251.032 351.638 252.87 352.437C251.437 353.928 251.09 356.13 250.227 357.986C249.802 358.901 249.204 359.935 248.253 360.255C247.9 360.372 247.488 360.383 247.21 360.67C246.866 361.026 246.785 361.423 246.345 361.729C244.591 362.949 241.853 362.855 240.298 361.263C238.893 359.823 239.259 357.545 240.432 356.085C238.564 355.305 235.16 354.303 235.903 351.391C231.855 351.121 222.025 344.551 227.458 339.749C224.476 338.062 221.737 333.941 223.652 330.307C225.127 327.51 228.557 326.26 231.372 326.111Z" fill="#E7E7E7"/>
<path fill-rule="evenodd" clip-rule="evenodd" d="M202.791 536.559H287.809L298.948 673.114H172.393L202.791 536.559Z" fill="#DDDDDD"/>
<path fill-rule="evenodd" clip-rule="evenodd" d="M202.791 536.559H228.939L244.589 673.114H172.393L202.791 536.559Z" fill="#E7E7E7"/>
<path fill-rule="evenodd" clip-rule="evenodd" d="M334.52 563.613C324.966 583.889 310.037 633.108 310.037 633.108L322.711 638.903C322.711 638.903 354.868 587.164 374.521 551.796C373.605 559.758 372.672 568.722 371.808 578.145C369.761 600.469 371.807 648.696 372.909 662.628C373.601 671.383 385.49 669.549 386.599 662.605C386.787 661.429 387.553 657.3 388.697 651.138C394.301 620.929 408.971 541.865 408.996 522.506C409.007 514.715 393.799 507.718 384.734 513.165C378.508 506.516 366.724 502.684 359.955 513.666C355.651 520.648 345.425 540.469 334.52 563.613Z" fill="#F1CCAB"/>
<path fill-rule="evenodd" clip-rule="evenodd" d="M310.943 614.886L354.443 511.766C364.864 494.992 394.081 515.181 390.527 524.91C382.459 546.998 341.426 618.508 339.023 625.088L310.943 614.886Z" fill="#ABC543"/>
<path fill-rule="evenodd" clip-rule="evenodd" d="M311.629 626.853C310.956 625.924 309.642 625.705 308.762 626.44C306.961 627.944 304.209 630.395 303.239 632.075C301.751 634.655 299.755 640.1 299.755 640.1C302.746 641.828 353.508 671.157 353.508 671.157C353.508 671.157 359.603 665.436 355.407 662.274C351.212 659.114 348.483 656.943 348.483 656.943L329.857 631.262C329.532 630.814 328.903 630.723 328.465 631.06L324.513 634.107C324.513 634.107 319.208 633.644 316.595 632.134C314.938 631.177 312.9 628.607 311.629 626.853Z" fill="#E4E4E4"/>
<path fill-rule="evenodd" clip-rule="evenodd" d="M372.936 655.701C371.889 655.232 370.641 655.701 370.246 656.777C369.438 658.982 368.279 662.481 368.279 664.421C368.279 667.4 369.27 673.114 369.27 673.114C372.723 673.114 431.339 673.114 431.339 673.114C431.339 673.114 433.759 665.11 428.546 664.472C423.334 663.834 419.886 663.319 419.886 663.319L390.924 650.399C390.419 650.174 389.829 650.41 389.619 650.92L387.717 655.537C387.717 655.537 382.891 657.79 379.874 657.79C377.962 657.79 374.913 656.584 372.936 655.701Z" fill="#E4E4E4"/>
<path fill-rule="evenodd" clip-rule="evenodd" d="M412.045 530.428C412.045 559.685 398.161 627.93 398.152 634.373L368.279 634.395C368.279 634.395 374.838 543.054 372.93 542.069C371.023 541.086 294.74 549.691 271.862 549.691C238.871 549.691 225.223 528.872 224.115 490.306H289.469C302.776 491.731 372.185 505.741 397.961 510.557C408.996 512.618 412.045 522.368 412.045 530.428Z" fill="#D9FB52"/>
<path fill-rule="evenodd" clip-rule="evenodd" d="M322.861 503.812C301.961 547.369 213.982 517.959 213.982 517.959C213.982 510.411 216.974 502.844 220.115 494.897C223.483 486.376 227.026 477.418 227.237 467.577C227.627 449.473 231.01 394.621 245.127 376.092C245.385 375.255 245.645 374.416 245.91 373.573L246.887 374.034C247.039 373.876 247.193 373.723 247.348 373.573L278.151 378.339C278.151 392.282 287.067 405.502 295.093 417.404C297.046 420.299 298.946 423.116 300.653 425.848C302.888 429.424 305.41 433.066 307.995 436.797C321.084 455.693 335.775 476.899 322.861 503.812Z" fill="#C1DEE2"/>
<path fill-rule="evenodd" clip-rule="evenodd" d="M283.391 495.579C285.451 484.94 286.787 477.837 287.4 474.271C303.81 492.829 313.291 502.215 315.841 502.43C320.638 502.835 324.181 498.578 325.192 499.775C326.859 504.731 322.148 517.135 313.143 518.939C308.843 519.801 302.188 510.926 299.446 507.782C298.369 506.545 293.017 502.477 283.391 495.579ZM311.738 438.859C315.992 438.859 318.276 440.618 320.792 444.169C323.307 447.72 325.687 464.466 321.649 464.466C317.611 464.466 300.691 457.992 300.691 453.641C300.691 449.288 312.236 447.445 312.236 444.169C312.236 440.892 307.483 438.859 311.738 438.859Z" fill="#F1CCAB"/>
<path fill-rule="evenodd" clip-rule="evenodd" d="M240.144 394.187C229.34 439.264 233.741 477.282 274.802 511.767C274.319 513.499 274.03 514.534 274.03 514.534C225.834 480.825 225.81 439.975 240.144 394.187Z" fill="black" fill-opacity="0.2"/>
<path fill-rule="evenodd" clip-rule="evenodd" d="M573.863 296.642C566.726 300.944 559.714 303.022 556.422 302.174C548.167 300.047 547.409 269.851 553.795 257.947C560.182 246.042 593.014 240.854 594.669 264.44C595.243 272.625 591.806 279.931 586.728 285.892L595.833 328.334H569.383L573.863 296.642Z" fill="#F1CCAB"/>
<path fill-rule="evenodd" clip-rule="evenodd" d="M568.871 244.227C572.358 243.655 581.744 243.262 583.475 243.262C584.581 243.262 585.78 243.515 586.436 242.5C586.971 241.667 586.776 240.261 586.935 239.295C587.121 238.175 587.386 237.068 587.652 235.964C588.413 232.822 589.563 229.833 591.17 227.027C594.189 221.762 598.61 217.638 604.191 215.239C610.355 212.589 617.329 211.982 623.958 212.519C631.053 213.094 637.476 215.437 644.175 217.641C650.558 219.741 657.243 220.567 663.92 219.543C670.647 218.509 675.729 214.863 681.403 211.403C687.211 207.86 693.849 205.543 700.716 206.076C707.125 206.573 713.033 209.22 718.333 212.755C723.297 216.063 727.382 220.043 729.694 225.644C732.182 231.669 732.172 238.282 728.087 243.608C722.17 251.326 711.17 253.322 702.021 253.123C696.729 253.009 691.532 252.043 686.536 250.286C679.873 247.942 674.115 243.97 667.882 240.747C664.957 239.235 661.933 237.992 658.764 237.098C655.688 236.23 652.659 235.831 649.874 237.689C646.929 239.655 644.288 241.586 640.918 242.816C637.685 243.996 634.262 244.656 630.817 244.63C624.115 244.578 617.509 242.49 611.001 241.091C605.693 239.951 600.014 238.814 594.602 239.911C592.344 240.368 589.046 241.312 588.23 243.66C601.956 246.147 607.347 263.123 603.478 275.584C601.389 282.31 588.835 290.173 583.954 286.637C580.861 284.397 582.739 281.456 583.954 279.514C586.281 275.796 587.077 271.021 582.772 268.432C579.058 266.2 575.153 271.502 575.078 271.496C574.059 271.415 565.238 266.427 559.162 259.148C553.166 259.504 552.257 255.551 553.689 252.318C555.12 249.086 564.054 245.017 568.871 244.227Z" fill="#E7E7E7"/>
<path fill-rule="evenodd" clip-rule="evenodd" d="M613.431 421.402L572.019 557.052L551.959 672.413H536.229L557.427 421.402H613.431Z" fill="#DBB796"/>
<path fill-rule="evenodd" clip-rule="evenodd" d="M628.247 421.402C625.434 495.881 628.744 534.299 629.373 541.065C630.003 547.832 638.623 591.707 659.031 674.684L642.27 668.917C610.018 592.815 599.027 553.264 595.328 543.27C591.629 533.278 581.804 492.654 565.854 421.402H628.247Z" fill="#F1CCAB"/>
<path fill-rule="evenodd" clip-rule="evenodd" d="M656.093 667.495C657.142 667.026 658.391 667.494 658.785 668.572C659.594 670.779 660.753 674.283 660.753 676.225C660.753 679.207 659.76 684.93 659.76 684.93C656.307 684.93 597.691 684.93 597.691 684.93C597.691 684.93 595.272 676.915 600.485 676.276C605.697 675.638 609.145 675.122 609.145 675.122L638.107 662.186C638.611 661.961 639.202 662.197 639.413 662.707L641.314 667.33C641.314 667.33 646.14 669.586 649.156 669.586C651.069 669.586 654.117 668.379 656.093 667.495Z" fill="#E4E4E4"/>
<path fill-rule="evenodd" clip-rule="evenodd" d="M552.648 667.495C553.697 667.026 554.946 667.494 555.34 668.572C556.148 670.779 557.307 674.283 557.307 676.225C557.307 679.207 556.315 684.93 556.315 684.93C552.862 684.93 494.246 684.93 494.246 684.93C494.246 684.93 491.826 676.915 497.039 676.276C502.252 675.638 505.7 675.122 505.7 675.122L534.662 662.186C535.166 661.961 535.757 662.197 535.967 662.707L537.869 667.33C537.869 667.33 542.694 669.586 545.711 669.586C547.624 669.586 550.671 668.379 552.648 667.495Z" fill="#E4E4E4"/>
<path fill-rule="evenodd" clip-rule="evenodd" d="M618.934 421.402L601.327 490.514H547.545L555.564 421.402H618.934Z" fill="#69A1AC"/>
<path fill-rule="evenodd" clip-rule="evenodd" d="M628.838 421.402C637.529 447.502 632.14 490.514 632.14 490.514H577.258L562.168 421.402H628.838Z" fill="#89C5CC"/>
<path fill-rule="evenodd" clip-rule="evenodd" d="M688.722 456.164C684.613 450.136 656.919 369.024 656.919 369.024L633.033 372.473C633.033 372.473 672.745 456.936 675.014 460.864C677.962 465.967 675.351 474.35 673.582 480.035C673.308 480.914 673.054 481.729 672.844 482.457C676.559 483.527 677.973 481.404 679.463 479.165C681.147 476.638 682.928 473.962 688.234 475.576C690.283 476.199 692.252 476.999 694.176 477.781C700.821 480.483 706.927 482.964 713.941 477.156C715.053 476.235 715.99 473.225 712.457 471.471C703.655 467.104 690.73 459.11 688.722 456.164ZM482.88 451.972L509.565 417.52L522.327 433.813L492.836 457.251C486.557 471.061 482.592 477.203 480.942 475.679C479.551 474.393 479.871 472.726 480.166 471.19C480.397 469.994 480.611 468.876 479.989 468.082C478.569 466.27 472.273 468.307 466.382 470.495C460.49 472.684 461.477 469.505 462.551 467.768C467.646 462.332 474.423 457.066 482.88 451.972Z" fill="#F1CCAB"/>
<path fill-rule="evenodd" clip-rule="evenodd" d="M574.585 311.586L564.92 311.296C557.426 365.844 486.067 412.338 484.134 432.607C483.425 440.041 489.12 442.947 486.751 445.514L500.277 452.754C502.014 450.042 507.069 453.845 515.891 449.448C524.713 445.052 583.314 373.701 574.585 311.586Z" fill="#DB2721"/>
<path fill-rule="evenodd" clip-rule="evenodd" d="M590.309 298.173C592.426 297.723 594.507 299.075 594.958 301.192L596.402 307.982C616.08 319.129 665.83 353.711 687.966 427.994C690.292 435.797 688.713 440.374 687.452 444.03C686.589 446.532 685.874 448.603 686.659 450.982L671.227 457.661C670.974 455.858 668.758 454.772 665.899 453.37C661.742 451.331 656.225 448.626 653.407 442.084C650.735 435.883 647.018 428.192 642.671 419.665C644.046 431.574 643.326 442.804 639.685 452.534C630.601 476.808 556.314 462.027 545.683 440.06C540.01 428.338 544.162 417.243 549.655 402.571C556.628 383.945 565.758 359.553 559.69 320.791L557.226 309.206C556.775 307.09 558.126 305.01 560.243 304.56L590.309 298.173Z" fill="#FF4133"/>
</svg>
