<svg width="495" height="404" viewBox="0 0 751 610" fill="none" xmlns="http://www.w3.org/2000/svg">
<path fill-rule="evenodd" clip-rule="evenodd" d="M739.218 156.411C738.636 155.988 737.255 155.838 736.613 155.71C733.942 155.184 731.191 154.955 728.468 154.955C720.073 154.968 711.542 155.792 703.287 157.219C698.045 158.123 691.708 161.171 686.494 159.516C677.41 156.633 668.23 156.774 659.611 160.891C651.731 164.654 645.75 171.803 642.26 179.527C641.732 180.693 639.596 184.985 638.991 187.878C638.733 188.469 638.484 189.064 638.26 189.669C637.625 191.385 637.054 193.131 636.525 194.881C636.298 195.628 635.73 197.276 636.405 197.594C635.326 199.588 634.368 201.642 633.571 203.762C631.252 209.93 628.716 216.695 627.901 223.232C627.6 225.652 627.588 228.087 627.868 230.511C628.007 231.711 627.95 234.12 628.762 235.032C630.487 236.966 631.372 234.259 631.178 232.969C629.694 223.141 632.561 213.911 635.958 204.673C638.155 198.7 641.765 193.234 645.809 188.285C649.082 184.278 652.592 181.123 657.079 178.467C662.565 175.218 668.431 172.593 674.242 169.959C678.064 168.226 681.891 166.539 685.819 165.046C686.694 164.713 688.067 163.861 689.036 163.858C691.085 163.851 693.988 165.362 695.967 165.924C702.475 167.775 709.066 170.144 715.792 171.089C720.107 171.696 724.149 171.013 728.183 169.576C728.596 169.429 729.288 169.052 730.134 168.513C733.13 167.36 735.964 165.91 738.431 163.817C739.852 162.613 741.143 161.054 742.319 159.628C742.671 159.202 742.827 158.714 742.832 158.249C743.098 158.11 743.275 157.946 743.315 157.757C743.609 156.353 740.932 156.328 739.218 156.411Z" fill="#175ED3"/>
<path fill-rule="evenodd" clip-rule="evenodd" d="M57.2494 273.399C55.6024 274.732 53.9871 276.094 52.4111 277.512C51.21 278.592 49.0845 279.885 48.6532 281.522C48.2051 283.223 49.6201 284.815 50.7379 285.843C56.6492 291.282 63.3055 294.958 71.4965 295.571C84.1088 296.512 95.085 293.291 106.028 286.954C113.715 282.502 118.807 275.917 119.919 267.026C129.073 270.83 137.926 276.075 145.45 282.511C149.163 285.686 152.36 289.204 155.317 293.104C157.212 295.603 159.044 298.142 160.744 300.778C161.483 301.923 162.234 303.955 163.454 304.614C164.887 305.388 166.619 304.174 166.548 302.582C166.488 301.256 165.058 299.718 164.387 298.635C163.277 296.835 162.148 295.047 160.96 293.298C159.037 290.464 157.05 287.671 154.883 285.019C150.012 279.061 143.814 274.141 137.39 269.944C125.066 261.893 111.54 256.821 96.5444 256.391C87.3236 256.127 79.5667 259.277 71.6815 263.982C66.7721 266.91 61.7043 269.791 57.2494 273.399Z" fill="#D6E5FF"/>
<path fill-rule="evenodd" clip-rule="evenodd" d="M176.859 234.457C167.25 224.562 157.608 214.79 146.872 206.075C140.545 200.941 133.878 196.272 127.348 191.404C128.101 192.064 128.839 192.743 129.561 193.439C127.522 192.055 124.854 191.273 122.694 189.992C120.283 188.563 117.978 186.928 115.718 185.282C111.306 182.067 106.961 178.791 102.426 175.744C97.3736 172.35 92.1374 169.213 86.9989 165.946C82.6378 163.174 78.2234 160.14 73.558 157.873C71.0152 156.638 68.4664 155.175 65.9132 153.886C65.0587 153.455 56.388 147.98 56.4099 147.963C56.8891 147.603 61.2524 149.652 61.9271 149.928C63.8982 150.733 65.7832 151.696 67.6783 152.656C66.6381 150.605 65.8148 148.448 65.3666 146.18C65.2281 145.479 64.1188 140.381 64.6864 139.953C64.9699 139.739 67.7362 148.862 67.8779 149.738C67.993 150.451 67.9761 151.476 68.2093 152.151C68.5858 153.241 68.5668 152.911 69.3962 153.526C70.9163 154.651 72.9341 155.354 74.5794 156.293C75.4665 156.789 78.2134 158.753 79.8678 159.313C84.8738 161.744 89.948 165.485 94.7044 168.59C93.4562 166.244 92.5062 163.791 91.8134 161.22C91.6486 160.61 89.8708 155.135 90.3022 154.81C90.7875 154.444 94.1749 162.807 94.3756 163.598C94.7483 165.069 94.8257 166.705 95.2926 168.136C95.8044 169.707 97.4031 170.263 98.8435 171.179C104.144 174.546 109.263 178.124 114.295 181.867C119.788 172.1 113.455 160.306 108.119 152.11C104.271 146.204 99.0934 141.14 93.6249 136.72C86.3274 130.819 77.978 126.106 69.6389 121.795C59.9221 116.772 49.4201 113.659 38.5018 112.221C32.7914 111.469 26.9494 111.49 21.1812 111.732C18.3635 111.848 15.6589 112.221 12.9587 113.141C11.7416 113.556 10.5654 114.079 9.41914 114.664C8.54822 115.108 6.44148 115.577 5.94072 116.239C1.8188 121.605 -0.289905 126.951 0.0321187 133.693C0.336573 140.074 2.35208 146.459 5.08737 152.152C8.13355 158.49 12.0513 164.243 17.1752 169.072C21.0844 172.756 25.4549 175.962 29.7966 179.126C45.2388 190.38 64.8169 200.168 84.8171 197.653C91.2913 196.84 97.4489 194.576 103.203 191.499C104.559 190.774 105.907 190.041 107.187 189.185C108.05 188.608 110.357 186.007 111.225 185.913C112.415 185.784 114.977 188.203 116.094 188.94C124.577 194.54 132.838 200.443 140.925 206.585C149.53 213.119 157.712 220.099 165.654 227.406C169.032 230.513 172.388 233.629 175.667 236.842C176.431 237.589 178.298 240.341 179.683 240.466C180.558 240.545 181.149 239.797 181.024 238.987C180.807 237.578 177.843 235.471 176.859 234.457Z" fill="#1C72FF"/>
<path fill-rule="evenodd" clip-rule="evenodd" d="M729.13 196.051C725.408 195.238 721.298 195.3 717.507 195.367C697.173 195.644 677.205 205.271 664.211 220.653C653.148 233.748 650.106 250.029 647.92 266.487C647.704 268.121 647.611 269.744 647.489 271.382C647.463 271.734 647.423 272.047 647.381 272.343C646.522 273.111 646.07 274.007 646.58 274.991C644.687 279.134 643.085 283.383 641.71 287.765C637.664 300.663 633.55 313.807 636.084 327.37C636.677 319.906 637.923 312.274 639.413 304.932C639.498 304.511 639.591 304.093 639.687 303.676C639.697 303.633 639.706 303.588 639.716 303.544C640.243 301.296 640.928 299.116 641.762 296.97C641.771 296.946 641.779 296.923 641.788 296.9C641.898 296.617 642.015 296.336 642.131 296.055C642.37 295.473 642.615 294.893 642.875 294.316C642.964 294.118 643.047 293.92 643.129 293.72C644.343 290.745 644.855 287.393 645.943 284.316C646.202 283.616 646.474 282.919 646.759 282.225C646.776 282.184 646.793 282.144 646.81 282.104C647.581 280.237 648.431 278.393 649.331 276.569C649.82 276.201 650.081 275.29 650.503 274.462C650.589 274.298 651.271 273.21 651.474 272.583C652.004 271.558 652.531 270.533 653.065 269.51C653.05 269.516 653.033 269.522 653.017 269.528C653.551 268.545 654.086 267.567 654.618 266.593C654.735 266.379 654.852 266.165 654.97 265.95C655.161 265.609 655.352 265.267 655.542 264.927C657.323 261.739 659.212 258.616 661.173 255.531C661.874 254.43 663.545 252.851 663.866 251.616C663.878 251.569 663.88 251.526 663.888 251.483C668.144 245.505 673.042 239.992 678.919 235.624C678.208 236.392 676.698 238.997 676.3 239.513C675.077 241.092 673.752 242.562 672.421 244.05C670.037 246.716 667.711 249.466 665.643 252.374C661.86 257.693 658.599 263.29 655.514 269C655.485 269.033 655.453 269.064 655.425 269.099C653.875 271.01 652.899 273.898 651.784 276.083C656.199 274.038 661.082 272.706 665.613 270.89C670.133 269.08 674.529 267.063 678.773 264.696C684.414 261.549 690.266 257.997 695.596 253.977C701.704 250.188 706.837 244.973 711.368 239.501C716.728 233.025 721.64 226.494 724.678 218.632C726.171 214.769 727.345 210.74 728.042 206.664C728.072 206.488 728.11 206.294 728.153 206.095C728.865 204.687 729.502 203.248 730.036 201.776C730.884 199.44 732.889 196.872 729.13 196.051Z" fill="#D6E5FF"/>
<path fill-rule="evenodd" clip-rule="evenodd" d="M98.4266 223.407C97.2611 222.145 95.9516 221.006 94.4138 220.193C94.025 219.988 91.1293 218.613 90.9407 218.914C90.5014 219.616 98.0763 223.004 98.4266 223.407ZM112.156 214.973C112.147 215.027 113.151 216.73 113.424 217.254C114.006 218.368 114.543 219.503 115.048 220.641C114.301 218.632 113.531 216.768 112.156 214.973ZM41.9411 228.842C40.9741 229.153 39.8115 227.925 41.0657 227.623C42.0807 227.381 42.0309 227.324 42.4866 226.505C42.8567 225.842 43.0846 225.032 43.4094 224.336C44.0981 222.859 44.8795 221.449 45.8386 220.128C47.894 217.298 50.3983 214.859 53.2071 212.803C58.1089 209.217 63.6052 205.938 69.4355 204.291C78.7057 201.672 89.2565 201.511 98.5411 203.327C104.292 204.451 109.546 206.406 113.364 211.036C115.273 213.35 116.771 216.06 117.426 219.045C117.597 219.825 117.565 220.692 117.779 221.456C118.108 222.632 117.963 222.318 119.337 222.546C120.836 222.796 122.334 223.051 123.833 223.31C127.756 223.989 131.702 224.709 135.524 225.81C136.782 226.173 138.012 226.616 139.215 227.13C140.124 227.518 143.743 228.739 144.183 229.92C144.915 231.885 142.462 230.995 141.699 230.566C141.032 230.192 140.346 229.841 139.651 229.519C137.9 228.71 136.075 228.082 134.209 227.584C132.193 227.045 130.136 226.642 128.085 226.238C126.174 225.863 124.256 225.521 122.334 225.194C121.267 225.013 120.2 224.836 119.132 224.66C118.766 224.599 118.123 224.284 118.171 224.758C115.926 224.325 113.498 224.387 111.21 224.268C108.409 224.122 105.597 224.002 102.786 224.089C100.759 224.153 98.7299 224.286 96.7122 224.559C95.5337 224.718 94.3739 224.95 93.2175 225.245C92.5823 225.408 90.0775 225.751 89.7315 226.305C89.8801 226.067 92.6445 226.298 92.9965 226.284C94.4038 226.232 95.8 226.092 97.2022 225.936C99.8048 225.644 102.407 225.493 105.018 225.515C105.008 225.973 103.225 226.789 102.789 227.093C101.814 227.775 100.879 228.517 100.007 229.332C98.4713 230.767 96.6315 232.544 95.5697 234.246C95.8829 233.744 97.427 233.092 97.9748 232.709C98.8532 232.096 99.7142 231.441 100.528 230.742C101.279 230.096 101.981 229.397 102.67 228.685C103.36 227.972 104.295 226.489 105.202 226.014C105.257 225.985 105.652 226.297 105.875 226.191C106.102 226.084 106.384 225.55 106.441 225.528C107.284 225.203 108.886 225.607 109.773 225.649C112.072 225.755 114.371 225.893 116.668 226.02C117.38 226.059 117.985 225.897 118.254 226.421C118.54 226.982 118.015 228.454 117.866 229.064C117.311 231.33 116.328 233.361 114.779 235.116C111.878 238.404 108.3 240.595 104.259 242.062C88.7808 247.678 72.3137 249.927 56.8397 244.085C50.4336 241.666 40.7859 237.345 41.9411 228.842Z" fill="#175ED3"/>
<g opacity="0.6">
<path fill-rule="evenodd" clip-rule="evenodd" d="M750.661 493.404C761.191 564.688 505.816 611.184 286.01 578.735C66.2026 546.287 -34.6343 419.572 70.2538 352.054C175.143 284.535 740.13 422.12 750.661 493.404Z" fill="#E6EFFB"/>
</g>
<path d="M301.388 26.1897H145.341C140.52 26.1897 136.611 30.0982 136.611 34.9196V347.013C136.611 351.834 140.52 355.742 145.341 355.742H301.388C306.209 355.742 310.117 351.834 310.117 347.013V34.9196C310.117 30.0982 306.209 26.1897 301.388 26.1897Z" fill="#F9FAFB"/>
<path fill-rule="evenodd" clip-rule="evenodd" d="M222.819 335.009C231.858 335.009 239.187 327.68 239.187 318.64C239.187 309.601 231.858 302.272 222.819 302.272C213.779 302.272 206.45 309.601 206.45 318.64C206.45 327.68 213.779 335.009 222.819 335.009Z" fill="white"/>
<path fill-rule="evenodd" clip-rule="evenodd" d="M208.633 48.0144C209.838 48.0144 210.815 47.0373 210.815 45.8319C210.815 44.6265 209.838 43.6494 208.633 43.6494C207.427 43.6494 206.45 44.6265 206.45 45.8319C206.45 47.0373 207.427 48.0144 208.633 48.0144Z" fill="white"/>
<path d="M237.005 43.6494H218.454C217.248 43.6494 216.271 44.6265 216.271 45.8319C216.271 47.0372 217.248 48.0144 218.454 48.0144H237.005C238.21 48.0144 239.187 47.0372 239.187 45.8319C239.187 44.6265 238.21 43.6494 237.005 43.6494Z" fill="white"/>
<path d="M290.475 56.7444H156.253C153.843 56.7444 151.888 58.6986 151.888 61.1093V111.306C151.888 113.717 153.843 115.671 156.253 115.671H290.475C292.886 115.671 294.84 113.717 294.84 111.306V61.1093C294.84 58.6986 292.886 56.7444 290.475 56.7444Z" fill="white"/>
<mask id="mask0_63_1690" style="mask-type:luminance" maskUnits="userSpaceOnUse" x="194" y="74" width="81" height="24">
<path d="M274.107 74.4224H194.447V97.993H274.107V74.4224Z" fill="white"/>
</mask>
<g mask="url(#mask0_63_1690)">
<path d="M270.833 74.4224H197.72C195.912 74.4224 194.447 75.888 194.447 77.6961V79.9877C194.447 81.7957 195.912 83.2614 197.72 83.2614H270.833C272.641 83.2614 274.107 81.7957 274.107 79.9877V77.6961C274.107 75.888 272.641 74.4224 270.833 74.4224Z" fill="#D6E5FF"/>
<path d="M244.643 89.1541H197.72C195.912 89.1541 194.447 90.6197 194.447 92.4278V94.7194C194.447 96.5274 195.912 97.9931 197.72 97.9931H244.643C246.451 97.9931 247.917 96.5274 247.917 94.7194V92.4278C247.917 90.6197 246.451 89.1541 244.643 89.1541Z" fill="#D6E5FF"/>
</g>
<path fill-rule="evenodd" clip-rule="evenodd" d="M174.804 99.3027C182.036 99.3027 187.899 93.4395 187.899 86.2078C187.899 78.9762 182.036 73.113 174.804 73.113C167.573 73.113 161.71 78.9762 161.71 86.2078C161.71 93.4395 167.573 99.3027 174.804 99.3027Z" fill="#121212"/>
<path d="M290.475 124.401H156.253C153.843 124.401 151.888 126.355 151.888 128.766V165.868C151.888 168.278 153.843 170.233 156.253 170.233H290.475C292.886 170.233 294.84 168.278 294.84 165.868V128.766C294.84 126.355 292.886 124.401 290.475 124.401Z" fill="white"/>
<mask id="mask1_63_1690" style="mask-type:luminance" maskUnits="userSpaceOnUse" x="194" y="138" width="81" height="19">
<path d="M274.107 138.15H194.447V156.483H274.107V138.15Z" fill="white"/>
</mask>
<g mask="url(#mask1_63_1690)">
<path d="M270.833 138.15H197.72C195.912 138.15 194.447 139.616 194.447 141.424V141.751C194.447 143.559 195.912 145.025 197.72 145.025H270.833C272.641 145.025 274.107 143.559 274.107 141.751V141.424C274.107 139.616 272.641 138.15 270.833 138.15Z" fill="#D6E5FF"/>
<path d="M244.643 149.608H197.72C195.912 149.608 194.447 151.074 194.447 152.882V153.209C194.447 155.017 195.912 156.483 197.72 156.483H244.643C246.451 156.483 247.917 155.017 247.917 153.209V152.882C247.917 151.074 246.451 149.608 244.643 149.608Z" fill="#D6E5FF"/>
</g>
<path fill-rule="evenodd" clip-rule="evenodd" d="M174.804 160.412C182.036 160.412 187.899 154.548 187.899 147.317C187.899 140.085 182.036 134.222 174.804 134.222C167.573 134.222 161.709 140.085 161.709 147.317C161.709 154.548 167.573 160.412 174.804 160.412Z" fill="#121212"/>
<path d="M290.475 178.963H156.253C153.843 178.963 151.888 180.917 151.888 183.328V220.43C151.888 222.84 153.843 224.794 156.253 224.794H290.475C292.886 224.794 294.84 222.84 294.84 220.43V183.328C294.84 180.917 292.886 178.963 290.475 178.963Z" fill="white"/>
<mask id="mask2_63_1690" style="mask-type:luminance" maskUnits="userSpaceOnUse" x="194" y="192" width="81" height="20">
<path d="M274.107 192.712H194.447V211.045H274.107V192.712Z" fill="white"/>
</mask>
<g mask="url(#mask2_63_1690)">
<path d="M270.833 192.712H197.72C195.912 192.712 194.447 194.178 194.447 195.986V196.313C194.447 198.121 195.912 199.587 197.72 199.587H270.833C272.641 199.587 274.107 198.121 274.107 196.313V195.986C274.107 194.178 272.641 192.712 270.833 192.712Z" fill="#D6E5FF"/>
<path d="M244.643 204.17H197.72C195.912 204.17 194.447 205.636 194.447 207.444V207.771C194.447 209.579 195.912 211.045 197.72 211.045H244.643C246.451 211.045 247.917 209.579 247.917 207.771V207.444C247.917 205.636 246.451 204.17 244.643 204.17Z" fill="#D6E5FF"/>
</g>
<path fill-rule="evenodd" clip-rule="evenodd" d="M174.804 214.973C182.036 214.973 187.899 209.11 187.899 201.879C187.899 194.647 182.036 188.784 174.804 188.784C167.573 188.784 161.709 194.647 161.709 201.879C161.709 209.11 167.573 214.973 174.804 214.973Z" fill="#175ED3"/>
<path d="M290.475 233.524H156.253C153.843 233.524 151.888 235.479 151.888 237.889V274.991C151.888 277.402 153.843 279.356 156.253 279.356H290.475C292.886 279.356 294.84 277.402 294.84 274.991V237.889C294.84 235.479 292.886 233.524 290.475 233.524Z" fill="white"/>
<mask id="mask3_63_1690" style="mask-type:luminance" maskUnits="userSpaceOnUse" x="194" y="247" width="81" height="19">
<path d="M274.107 247.274H194.447V265.607H274.107V247.274Z" fill="white"/>
</mask>
<g mask="url(#mask3_63_1690)">
<path d="M270.833 247.274H197.72C195.912 247.274 194.447 248.74 194.447 250.548V250.875C194.447 252.683 195.912 254.149 197.72 254.149H270.833C272.641 254.149 274.107 252.683 274.107 250.875V250.548C274.107 248.74 272.641 247.274 270.833 247.274Z" fill="#D6E5FF"/>
<path d="M244.643 258.732H197.72C195.912 258.732 194.447 260.198 194.447 262.006V262.333C194.447 264.141 195.912 265.607 197.72 265.607H244.643C246.451 265.607 247.917 264.141 247.917 262.333V262.006C247.917 260.198 246.451 258.732 244.643 258.732Z" fill="#D6E5FF"/>
</g>
<path fill-rule="evenodd" clip-rule="evenodd" d="M174.804 269.535C182.036 269.535 187.899 263.672 187.899 256.44C187.899 249.209 182.036 243.345 174.804 243.345C167.573 243.345 161.709 249.209 161.709 256.44C161.709 263.672 167.573 269.535 174.804 269.535Z" fill="#121212"/>
<path fill-rule="evenodd" clip-rule="evenodd" d="M169.501 292.451C168.055 292.451 166.614 292.48 165.17 292.554C164.069 292.612 162.387 292.384 161.456 293.07C160.488 293.783 160.555 295.241 160.707 296.271C161.505 301.719 163.455 306.548 167.536 310.408C173.818 316.35 181.019 319.369 189.54 320.714C195.527 321.659 201.053 320.347 205.459 316.09C208.679 322.066 211.122 328.679 212.347 335.353C212.952 338.646 213.136 341.9 213.03 345.253C212.961 347.401 212.844 349.544 212.613 351.682C212.513 352.61 212.039 354.016 212.403 354.894C212.829 355.925 214.269 356.025 214.915 355.145C215.453 354.414 215.355 352.977 215.465 352.112C215.648 350.673 215.817 349.234 215.938 347.789C216.136 345.451 216.281 343.106 216.271 340.757C216.246 335.484 215.073 330.189 213.469 325.182C210.392 315.576 205.399 307.039 197.634 300.341C192.859 296.223 187.394 294.556 181.195 293.66C177.334 293.102 173.411 292.451 169.501 292.451Z" fill="#175ED3"/>
<path fill-rule="evenodd" clip-rule="evenodd" d="M191.796 330.644C176.192 330.644 165.684 343.219 160.715 356.29C158.842 361.216 158.403 366.626 157.681 371.799C157.449 373.459 157.536 375.989 156.861 377.468C156.617 378.004 156.056 378.197 156.324 378.928C156.487 379.37 156.804 379.641 157.284 379.729C158.265 379.91 159.653 378.84 160.494 378.419C167.473 374.918 172.059 369.506 175.8 362.884C178.12 358.78 180.472 354.519 181.849 350.013C182.691 347.26 183.181 344.362 183.469 341.506C183.582 340.381 183.691 339.23 183.685 338.099C183.678 336.976 183.156 336.383 182.78 335.406C187.986 333.435 193.864 332.898 199.138 334.94C204.016 336.829 208.067 340.479 210.336 345.066C210.925 346.257 211.38 347.514 211.711 348.798C211.928 349.638 211.938 350.727 212.341 351.486C213.314 353.328 215.363 352.097 215.167 350.383C214.618 345.602 211.883 340.802 208.387 337.478C203.977 333.286 198.002 330.644 191.796 330.644Z" fill="#175ED3"/>
<path d="M373.409 54.5618H217.363C212.541 54.5618 208.633 58.4703 208.633 63.2916V375.385C208.633 380.206 212.541 384.115 217.363 384.115H373.409C378.23 384.115 382.139 380.206 382.139 375.385V63.2916C382.139 58.4703 378.23 54.5618 373.409 54.5618Z" fill="#D6E5FF"/>
<path fill-rule="evenodd" clip-rule="evenodd" d="M294.84 363.381C303.88 363.381 311.209 356.052 311.209 347.013C311.209 337.973 303.88 330.644 294.84 330.644C285.8 330.644 278.472 337.973 278.472 347.013C278.472 356.052 285.8 363.381 294.84 363.381Z" fill="white"/>
<path fill-rule="evenodd" clip-rule="evenodd" d="M280.654 76.3864C281.86 76.3864 282.837 75.4098 282.837 74.204C282.837 72.9981 281.86 72.0215 280.654 72.0215C279.448 72.0215 278.472 72.9981 278.472 74.204C278.472 75.4098 279.448 76.3864 280.654 76.3864Z" fill="white"/>
<path d="M309.026 72.0215H290.475C289.27 72.0215 288.293 72.9986 288.293 74.204C288.293 75.4093 289.27 76.3864 290.475 76.3864H309.026C310.232 76.3864 311.209 75.4093 311.209 74.204C311.209 72.9986 310.232 72.0215 309.026 72.0215Z" fill="white"/>
<path d="M362.497 85.1162H228.275C225.864 85.1162 223.91 87.0705 223.91 89.4811V139.678C223.91 142.089 225.864 144.043 228.275 144.043H362.497C364.907 144.043 366.862 142.089 366.862 139.678V89.4811C366.862 87.0705 364.907 85.1162 362.497 85.1162Z" fill="white"/>
<mask id="mask4_63_1690" style="mask-type:luminance" maskUnits="userSpaceOnUse" x="233" y="102" width="81" height="25">
<path d="M313.391 102.794H233.731V126.365H313.391V102.794Z" fill="white"/>
</mask>
<g mask="url(#mask4_63_1690)">
<path d="M310.117 102.794H237.005C235.197 102.794 233.731 104.26 233.731 106.068V108.359C233.731 110.168 235.197 111.633 237.005 111.633H310.117C311.926 111.633 313.391 110.168 313.391 108.359V106.068C313.391 104.26 311.926 102.794 310.117 102.794Z" fill="#D6E5FF"/>
<path d="M283.928 117.526H237.005C235.197 117.526 233.731 118.992 233.731 120.8V123.091C233.731 124.899 235.197 126.365 237.005 126.365H283.928C285.736 126.365 287.202 124.899 287.202 123.091V120.8C287.202 118.992 285.736 117.526 283.928 117.526Z" fill="#D6E5FF"/>
</g>
<path fill-rule="evenodd" clip-rule="evenodd" d="M351.584 122.218C355.803 122.218 359.223 118.798 359.223 114.58C359.223 110.361 355.803 106.941 351.584 106.941C347.366 106.941 343.946 110.361 343.946 114.58C343.946 118.798 347.366 122.218 351.584 122.218Z" fill="#D6E5FF"/>
<path fill-rule="evenodd" clip-rule="evenodd" d="M351.584 117.853C353.392 117.853 354.858 116.388 354.858 114.58C354.858 112.771 353.392 111.306 351.584 111.306C349.776 111.306 348.311 112.771 348.311 114.58C348.311 116.388 349.776 117.853 351.584 117.853Z" fill="#F9FAFB"/>
<path d="M362.497 152.773H228.275C225.864 152.773 223.91 154.727 223.91 157.138V194.24C223.91 196.65 225.864 198.605 228.275 198.605H362.497C364.907 198.605 366.862 196.65 366.862 194.24V157.138C366.862 154.727 364.907 152.773 362.497 152.773Z" fill="white"/>
<mask id="mask5_63_1690" style="mask-type:luminance" maskUnits="userSpaceOnUse" x="266" y="166" width="81" height="19">
<path d="M346.128 166.522H266.468V184.855H346.128V166.522Z" fill="white"/>
</mask>
<g mask="url(#mask5_63_1690)">
<path d="M342.855 166.522H269.742C267.934 166.522 266.468 167.988 266.468 169.796V170.123C266.468 171.931 267.934 173.397 269.742 173.397H342.855C344.663 173.397 346.128 171.931 346.128 170.123V169.796C346.128 167.988 344.663 166.522 342.855 166.522Z" fill="#D6E5FF"/>
<path d="M316.665 177.98H269.742C267.934 177.98 266.468 179.446 266.468 181.254V181.581C266.468 183.389 267.934 184.855 269.742 184.855H316.665C318.473 184.855 319.939 183.389 319.939 181.581V181.254C319.939 179.446 318.473 177.98 316.665 177.98Z" fill="#D6E5FF"/>
</g>
<path fill-rule="evenodd" clip-rule="evenodd" d="M246.826 188.783C254.058 188.783 259.921 182.92 259.921 175.689C259.921 168.457 254.058 162.594 246.826 162.594C239.594 162.594 233.731 168.457 233.731 175.689C233.731 182.92 239.594 188.783 246.826 188.783Z" fill="#121212"/>
<path d="M362.497 207.334H228.275C225.864 207.334 223.91 209.289 223.91 211.699V248.801C223.91 251.212 225.864 253.166 228.275 253.166H362.497C364.907 253.166 366.862 251.212 366.862 248.801V211.699C366.862 209.289 364.907 207.334 362.497 207.334Z" fill="white"/>
<mask id="mask6_63_1690" style="mask-type:luminance" maskUnits="userSpaceOnUse" x="233" y="221" width="81" height="19">
<path d="M313.391 221.084H233.731V239.417H313.391V221.084Z" fill="white"/>
</mask>
<g mask="url(#mask6_63_1690)">
<path d="M310.118 221.084H237.005C235.197 221.084 233.731 222.55 233.731 224.358V224.685C233.731 226.493 235.197 227.959 237.005 227.959H310.118C311.926 227.959 313.391 226.493 313.391 224.685V224.358C313.391 222.55 311.926 221.084 310.118 221.084Z" fill="#D6E5FF"/>
<path d="M283.928 232.542H237.005C235.197 232.542 233.731 234.008 233.731 235.816V236.143C233.731 237.951 235.197 239.417 237.005 239.417H283.928C285.736 239.417 287.202 237.951 287.202 236.143V235.816C287.202 234.008 285.736 232.542 283.928 232.542Z" fill="#175ED3"/>
</g>
<path fill-rule="evenodd" clip-rule="evenodd" d="M351.584 237.889C355.803 237.889 359.223 234.469 359.223 230.25C359.223 226.032 355.803 222.612 351.584 222.612C347.366 222.612 343.946 226.032 343.946 230.25C343.946 234.469 347.366 237.889 351.584 237.889Z" fill="#D6E5FF"/>
<path fill-rule="evenodd" clip-rule="evenodd" d="M351.584 233.524C353.393 233.524 354.858 232.059 354.858 230.251C354.858 228.442 353.393 226.977 351.584 226.977C349.776 226.977 348.311 228.442 348.311 230.251C348.311 232.059 349.776 233.524 351.584 233.524Z" fill="#F9FAFB"/>
<path d="M362.497 261.896H228.275C225.864 261.896 223.91 263.85 223.91 266.261V303.363C223.91 305.774 225.864 307.728 228.275 307.728H362.497C364.907 307.728 366.862 305.774 366.862 303.363V266.261C366.862 263.85 364.907 261.896 362.497 261.896Z" fill="white"/>
<mask id="mask7_63_1690" style="mask-type:luminance" maskUnits="userSpaceOnUse" x="266" y="275" width="81" height="19">
<path d="M346.128 275.646H266.468V293.978H346.128V275.646Z" fill="white"/>
</mask>
<g mask="url(#mask7_63_1690)">
<path d="M342.855 275.646H269.742C267.934 275.646 266.468 277.111 266.468 278.919V279.247C266.468 281.055 267.934 282.52 269.742 282.52H342.855C344.663 282.52 346.128 281.055 346.128 279.247V278.919C346.128 277.111 344.663 275.646 342.855 275.646Z" fill="#D6E5FF"/>
<path d="M316.665 287.104H269.742C267.934 287.104 266.468 288.569 266.468 290.377V290.705C266.468 292.513 267.934 293.978 269.742 293.978H316.665C318.473 293.978 319.939 292.513 319.939 290.705V290.377C319.939 288.569 318.473 287.104 316.665 287.104Z" fill="#D6E5FF"/>
</g>
<path fill-rule="evenodd" clip-rule="evenodd" d="M246.826 297.907C254.058 297.907 259.921 292.043 259.921 284.812C259.921 277.58 254.058 271.717 246.826 271.717C239.594 271.717 233.731 277.58 233.731 284.812C233.731 292.043 239.594 297.907 246.826 297.907Z" fill="#121212"/>
<path d="M637.488 81.8425H289.384C284.563 81.8425 280.654 85.751 280.654 90.5724V450.68C280.654 455.501 284.563 459.41 289.384 459.41H637.488C642.309 459.41 646.218 455.501 646.218 450.68V90.5724C646.218 85.751 642.309 81.8425 637.488 81.8425Z" fill="#F9FAFB"/>
<path d="M620.028 128.766H561.101C556.28 128.766 552.371 132.674 552.371 137.495V208.426C552.371 213.247 556.28 217.156 561.101 217.156H620.028C624.849 217.156 628.758 213.247 628.758 208.426V137.495C628.758 132.674 624.849 128.766 620.028 128.766Z" fill="white"/>
<path fill-rule="evenodd" clip-rule="evenodd" d="M590.565 180.054C600.208 180.054 608.024 172.237 608.024 162.594C608.024 152.951 600.208 145.134 590.565 145.134C580.921 145.134 573.105 152.951 573.105 162.594C573.105 172.237 580.921 180.054 590.565 180.054Z" fill="#D6E5FF"/>
<path d="M614.572 184.419H566.557C564.749 184.419 563.284 185.884 563.284 187.692C563.284 189.5 564.749 190.966 566.557 190.966H614.572C616.38 190.966 617.845 189.5 617.845 187.692C617.845 185.884 616.38 184.419 614.572 184.419Z" fill="#D6E5FF"/>
<path d="M605.842 195.331H575.287C573.479 195.331 572.014 196.797 572.014 198.605C572.014 200.413 573.479 201.878 575.287 201.878H605.842C607.65 201.878 609.116 200.413 609.116 198.605C609.116 196.797 607.65 195.331 605.842 195.331Z" fill="#D6E5FF"/>
<path d="M280.654 90.5724C280.654 85.7513 284.563 81.8425 289.384 81.8425H637.488C642.309 81.8425 646.218 85.7513 646.218 90.5724V111.306H280.654V90.5724Z" fill="#121212"/>
<path fill-rule="evenodd" clip-rule="evenodd" d="M294.84 101.485C297.251 101.485 299.205 99.5304 299.205 97.1198C299.205 94.7093 297.251 92.7549 294.84 92.7549C292.43 92.7549 290.475 94.7093 290.475 97.1198C290.475 99.5304 292.43 101.485 294.84 101.485Z" fill="#F9FAFB"/>
<path fill-rule="evenodd" clip-rule="evenodd" d="M307.935 101.485C310.345 101.485 312.3 99.5304 312.3 97.1198C312.3 94.7093 310.345 92.7549 307.935 92.7549C305.524 92.7549 303.57 94.7093 303.57 97.1198C303.57 99.5304 305.524 101.485 307.935 101.485Z" fill="#F9FAFB"/>
<path fill-rule="evenodd" clip-rule="evenodd" d="M321.03 101.485C323.44 101.485 325.395 99.5304 325.395 97.1198C325.395 94.7093 323.44 92.7549 321.03 92.7549C318.619 92.7549 316.665 94.7093 316.665 97.1198C316.665 99.5304 318.619 101.485 321.03 101.485Z" fill="#F9FAFB"/>
<path d="M620.028 225.885H561.101C556.28 225.885 552.371 229.794 552.371 234.615V428.855C552.371 433.676 556.28 437.585 561.101 437.585H620.028C624.849 437.585 628.758 433.676 628.758 428.855V234.615C628.758 229.794 624.849 225.885 620.028 225.885Z" fill="white"/>
<path d="M604.751 245.528H576.379C573.968 245.528 572.014 247.482 572.014 249.893V269.535C572.014 271.946 573.968 273.9 576.379 273.9H604.751C607.161 273.9 609.116 271.946 609.116 269.535V249.893C609.116 247.482 607.161 245.528 604.751 245.528Z" fill="#D6E5FF"/>
<path d="M604.751 282.63H576.379C573.968 282.63 572.014 284.584 572.014 286.995V305.546C572.014 307.956 573.968 309.911 576.379 309.911H604.751C607.161 309.911 609.116 307.956 609.116 305.546V286.995C609.116 284.584 607.161 282.63 604.751 282.63Z" fill="#175ED3"/>
<path d="M604.751 318.641H576.379C573.968 318.641 572.014 320.595 572.014 323.006V341.557C572.014 343.967 573.968 345.921 576.379 345.921H604.751C607.161 345.921 609.116 343.967 609.116 341.557V323.006C609.116 320.595 607.161 318.641 604.751 318.641Z" fill="#D6E5FF"/>
<path d="M604.751 390.662H576.379C573.968 390.662 572.014 392.616 572.014 395.027V413.578C572.014 415.989 573.968 417.943 576.379 417.943H604.751C607.161 417.943 609.116 415.989 609.116 413.578V395.027C609.116 392.616 607.161 390.662 604.751 390.662Z" fill="#D6E5FF"/>
<path d="M604.751 354.651H576.379C573.968 354.651 572.014 356.606 572.014 359.016V377.567C572.014 379.978 573.968 381.932 576.379 381.932H604.751C607.161 381.932 609.116 379.978 609.116 377.567V359.016C609.116 356.606 607.161 354.651 604.751 354.651Z" fill="#121212"/>
<path d="M539.277 129.857H302.479C300.068 129.857 298.114 131.811 298.114 134.222V176.78C298.114 179.191 300.068 181.145 302.479 181.145H539.277C541.687 181.145 543.641 179.191 543.641 176.78V134.222C543.641 131.811 541.687 129.857 539.277 129.857Z" fill="white"/>
<mask id="mask8_63_1690" style="mask-type:luminance" maskUnits="userSpaceOnUse" x="307" y="145" width="184" height="21">
<path d="M490.171 145.243H307.935V165.758H490.171V145.243Z" fill="white"/>
</mask>
<g mask="url(#mask8_63_1690)">
<path d="M486.897 145.243H311.209C309.401 145.243 307.935 146.709 307.935 148.517V149.663C307.935 151.471 309.401 152.936 311.209 152.936H486.897C488.705 152.936 490.171 151.471 490.171 149.663V148.517C490.171 146.709 488.705 145.243 486.897 145.243Z" fill="#D6E5FF"/>
<path d="M426.984 158.065H311.209C309.401 158.065 307.935 159.531 307.935 161.339V162.485C307.935 164.293 309.401 165.758 311.209 165.758H426.984C428.792 165.758 430.258 164.293 430.258 162.485V161.339C430.258 159.531 428.792 158.065 426.984 158.065Z" fill="#D6E5FF"/>
</g>
<path fill-rule="evenodd" clip-rule="evenodd" d="M517.402 163.14C521.62 163.14 525.04 159.72 525.04 155.501C525.04 151.282 521.62 147.862 517.402 147.862C513.183 147.862 509.763 151.282 509.763 155.501C509.763 159.72 513.183 163.14 517.402 163.14Z" fill="#D6E5FF"/>
<path fill-rule="evenodd" clip-rule="evenodd" d="M517.402 158.775C519.21 158.775 520.675 157.309 520.675 155.501C520.675 153.693 519.21 152.227 517.402 152.227C515.593 152.227 514.128 153.693 514.128 155.501C514.128 157.309 515.593 158.775 517.402 158.775Z" fill="#F9FAFB"/>
<path d="M539.277 189.875H302.479C300.068 189.875 298.114 191.829 298.114 194.24V228.068C298.114 230.479 300.068 232.433 302.479 232.433H539.277C541.687 232.433 543.641 230.479 543.641 228.068V194.24C543.641 191.829 541.687 189.875 539.277 189.875Z" fill="white"/>
<mask id="mask9_63_1690" style="mask-type:luminance" maskUnits="userSpaceOnUse" x="307" y="202" width="184" height="18">
<path d="M490.171 202.642H307.935V219.665H490.171V202.642Z" fill="white"/>
</mask>
<g mask="url(#mask9_63_1690)">
<path d="M486.979 202.642H311.127C309.364 202.642 307.935 204.071 307.935 205.834C307.935 207.597 309.364 209.026 311.127 209.026H486.979C488.742 209.026 490.171 207.597 490.171 205.834C490.171 204.071 488.742 202.642 486.979 202.642Z" fill="#D6E5FF"/>
<path d="M427.066 213.281H311.127C309.364 213.281 307.935 214.711 307.935 216.473C307.935 218.236 309.364 219.665 311.127 219.665H427.066C428.829 219.665 430.258 218.236 430.258 216.473C430.258 214.711 428.829 213.281 427.066 213.281Z" fill="#D6E5FF"/>
</g>
<path fill-rule="evenodd" clip-rule="evenodd" d="M517.402 218.792C521.62 218.792 525.04 215.372 525.04 211.154C525.04 206.935 521.62 203.515 517.402 203.515C513.183 203.515 509.763 206.935 509.763 211.154C509.763 215.372 513.183 218.792 517.402 218.792Z" fill="#D6E5FF"/>
<path fill-rule="evenodd" clip-rule="evenodd" d="M517.402 214.428C519.21 214.428 520.675 212.962 520.675 211.154C520.675 209.346 519.21 207.88 517.402 207.88C515.593 207.88 514.128 209.346 514.128 211.154C514.128 212.962 515.593 214.428 517.402 214.428Z" fill="#F9FAFB"/>
<path d="M539.277 241.163H302.479C300.068 241.163 298.114 243.117 298.114 245.528V279.356C298.114 281.767 300.068 283.721 302.479 283.721H539.277C541.687 283.721 543.641 281.767 543.641 279.356V245.528C543.641 243.117 541.687 241.163 539.277 241.163Z" fill="white"/>
<mask id="mask10_63_1690" style="mask-type:luminance" maskUnits="userSpaceOnUse" x="307" y="253" width="184" height="18">
<path d="M490.171 253.93H307.935V270.953H490.171V253.93Z" fill="white"/>
</mask>
<g mask="url(#mask10_63_1690)">
<path d="M486.979 253.93H311.127C309.364 253.93 307.935 255.359 307.935 257.122C307.935 258.885 309.364 260.314 311.127 260.314H486.979C488.742 260.314 490.171 258.885 490.171 257.122C490.171 255.359 488.742 253.93 486.979 253.93Z" fill="#D6E5FF"/>
<path d="M427.066 264.57H311.127C309.364 264.57 307.935 265.999 307.935 267.762C307.935 269.524 309.364 270.954 311.127 270.954H427.066C428.829 270.954 430.258 269.524 430.258 267.762C430.258 265.999 428.829 264.57 427.066 264.57Z" fill="#D6E5FF"/>
</g>
<path fill-rule="evenodd" clip-rule="evenodd" d="M517.402 270.081C521.62 270.081 525.04 266.661 525.04 262.442C525.04 258.223 521.62 254.803 517.402 254.803C513.183 254.803 509.763 258.223 509.763 262.442C509.763 266.661 513.183 270.081 517.402 270.081Z" fill="#D6E5FF"/>
<path fill-rule="evenodd" clip-rule="evenodd" d="M517.402 265.716C519.21 265.716 520.675 264.25 520.675 262.442C520.675 260.634 519.21 259.168 517.402 259.168C515.593 259.168 514.128 260.634 514.128 262.442C514.128 264.25 515.593 265.716 517.402 265.716Z" fill="#175ED3"/>
<path d="M539.277 395.027H302.479C300.068 395.027 298.114 396.981 298.114 399.392V433.22C298.114 435.631 300.068 437.585 302.479 437.585H539.277C541.687 437.585 543.641 435.631 543.641 433.22V399.392C543.641 396.981 541.687 395.027 539.277 395.027Z" fill="white"/>
<mask id="mask11_63_1690" style="mask-type:luminance" maskUnits="userSpaceOnUse" x="307" y="407" width="184" height="18">
<path d="M490.171 407.794H307.935V424.817H490.171V407.794Z" fill="white"/>
</mask>
<g mask="url(#mask11_63_1690)">
<path d="M486.979 407.794H311.127C309.364 407.794 307.935 409.223 307.935 410.986C307.935 412.749 309.364 414.178 311.127 414.178H486.979C488.742 414.178 490.171 412.749 490.171 410.986C490.171 409.223 488.742 407.794 486.979 407.794Z" fill="#D6E5FF"/>
<path d="M427.066 418.434H311.127C309.364 418.434 307.935 419.863 307.935 421.626C307.935 423.389 309.364 424.818 311.127 424.818H427.066C428.829 424.818 430.258 423.389 430.258 421.626C430.258 419.863 428.829 418.434 427.066 418.434Z" fill="#D6E5FF"/>
</g>
<path fill-rule="evenodd" clip-rule="evenodd" d="M517.402 423.945C521.62 423.945 525.04 420.525 525.04 416.306C525.04 412.087 521.62 408.667 517.402 408.667C513.183 408.667 509.763 412.087 509.763 416.306C509.763 420.525 513.183 423.945 517.402 423.945Z" fill="#D6E5FF"/>
<path fill-rule="evenodd" clip-rule="evenodd" d="M517.402 419.58C519.21 419.58 520.675 418.114 520.675 416.306C520.675 414.498 519.21 413.032 517.402 413.032C515.593 413.032 514.128 414.498 514.128 416.306C514.128 418.114 515.593 419.58 517.402 419.58Z" fill="#F9FAFB"/>
<path d="M539.277 343.739H302.479C300.068 343.739 298.114 345.693 298.114 348.104V381.932C298.114 384.343 300.068 386.297 302.479 386.297H539.277C541.687 386.297 543.641 384.343 543.641 381.932V348.104C543.641 345.693 541.687 343.739 539.277 343.739Z" fill="white"/>
<mask id="mask12_63_1690" style="mask-type:luminance" maskUnits="userSpaceOnUse" x="307" y="356" width="184" height="18">
<path d="M490.171 356.506H307.935V373.529H490.171V356.506Z" fill="white"/>
</mask>
<g mask="url(#mask12_63_1690)">
<path d="M486.979 356.506H311.127C309.364 356.506 307.935 357.935 307.935 359.698C307.935 361.461 309.364 362.89 311.127 362.89H486.979C488.742 362.89 490.171 361.461 490.171 359.698C490.171 357.935 488.742 356.506 486.979 356.506Z" fill="#D6E5FF"/>
<path d="M427.066 367.146H311.127C309.364 367.146 307.935 368.575 307.935 370.337C307.935 372.1 309.364 373.529 311.127 373.529H427.066C428.829 373.529 430.258 372.1 430.258 370.337C430.258 368.575 428.829 367.146 427.066 367.146Z" fill="#D6E5FF"/>
</g>
<path fill-rule="evenodd" clip-rule="evenodd" d="M517.402 372.656C521.62 372.656 525.04 369.237 525.04 365.018C525.04 360.799 521.62 357.379 517.402 357.379C513.183 357.379 509.763 360.799 509.763 365.018C509.763 369.237 513.183 372.656 517.402 372.656Z" fill="#D6E5FF"/>
<path fill-rule="evenodd" clip-rule="evenodd" d="M517.402 368.292C519.21 368.292 520.675 366.826 520.675 365.018C520.675 363.21 519.21 361.744 517.402 361.744C515.593 361.744 514.128 363.21 514.128 365.018C514.128 366.826 515.593 368.292 517.402 368.292Z" fill="#F9FAFB"/>
<path d="M539.277 292.451H302.479C300.068 292.451 298.114 294.405 298.114 296.816V330.644C298.114 333.055 300.068 335.009 302.479 335.009H539.277C541.687 335.009 543.641 333.055 543.641 330.644V296.816C543.641 294.405 541.687 292.451 539.277 292.451Z" fill="white"/>
<mask id="mask13_63_1690" style="mask-type:luminance" maskUnits="userSpaceOnUse" x="307" y="305" width="184" height="18">
<path d="M490.171 305.218H307.935V322.241H490.171V305.218Z" fill="white"/>
</mask>
<g mask="url(#mask13_63_1690)">
<path d="M486.979 305.218H311.127C309.364 305.218 307.935 306.647 307.935 308.41C307.935 310.173 309.364 311.602 311.127 311.602H486.979C488.742 311.602 490.171 310.173 490.171 308.41C490.171 306.647 488.742 305.218 486.979 305.218Z" fill="#D6E5FF"/>
<path d="M427.066 315.858H311.127C309.364 315.858 307.935 317.287 307.935 319.05C307.935 320.812 309.364 322.241 311.127 322.241H427.066C428.829 322.241 430.258 320.812 430.258 319.05C430.258 317.287 428.829 315.858 427.066 315.858Z" fill="#D6E5FF"/>
</g>
<path fill-rule="evenodd" clip-rule="evenodd" d="M517.402 321.368C521.62 321.368 525.04 317.948 525.04 313.73C525.04 309.511 521.62 306.091 517.402 306.091C513.183 306.091 509.763 309.511 509.763 313.73C509.763 317.948 513.183 321.368 517.402 321.368Z" fill="#D6E5FF"/>
<path fill-rule="evenodd" clip-rule="evenodd" d="M517.402 317.003C519.21 317.003 520.675 315.538 520.675 313.73C520.675 311.922 519.21 310.456 517.402 310.456C515.593 310.456 514.128 311.922 514.128 313.73C514.128 315.538 515.593 317.003 517.402 317.003Z" fill="#F9FAFB"/>
<path fill-rule="evenodd" clip-rule="evenodd" d="M736.775 267.763C732.47 264.844 726.746 264.079 721.596 264.079C701.478 264.079 682.568 271.543 666.232 282.665C657.28 288.758 649.273 296.519 642.204 304.598C638.123 309.263 634.485 314.308 631.908 319.92C630.17 323.708 628.977 327.655 628.168 331.725C627.183 336.686 626.4 341.747 626.046 346.791C625.906 348.777 624.753 359.315 628.055 359.494C628.035 359.754 628.031 360.001 628.052 360.223C620.881 371.434 616.452 384.573 612.343 397.029C608.77 407.869 605.584 418.8 603.517 430.015C600.795 444.778 599.007 459.765 598.157 474.741C597.975 477.959 597.85 481.18 597.742 484.402C597.65 487.151 597.557 489.9 597.467 492.65C597.366 495.73 596.824 499.277 597.314 502.339C597.74 505.006 600.048 504.602 600.151 501.948C600.274 498.743 600.254 495.532 600.394 492.324C600.581 488.068 600.773 483.811 600.981 479.555C602.432 449.991 607.871 420.862 617.912 392.936C621.976 381.635 626.631 370.938 632.615 360.484C637.876 351.292 644.205 342.393 650.674 334.106C656.961 326.052 663.498 318.185 671.201 311.362C677.453 305.825 684.33 301.001 691.399 296.512C700.377 290.812 709.338 285.25 719.063 280.874C724.119 278.6 729.269 276.563 734.364 274.38C735.281 273.988 736.263 273.607 737.145 273.152C740.085 271.635 739.118 269.351 736.775 267.763Z" fill="#1C72FF"/>
<path fill-rule="evenodd" clip-rule="evenodd" d="M655.84 371.02C663.999 371.02 671.26 372.08 678.778 375.323C685.267 378.122 691.182 381.826 696.924 385.859C705 391.533 711.362 398.135 715.815 406.883C718.476 412.109 720.428 419.504 718.641 425.205C716.537 431.918 710.757 437.519 703.146 436.336C698.44 435.604 694.126 432.489 690.549 429.557C686.269 426.049 682.844 421.831 680.015 417.146C675.401 409.504 672.691 400.866 668.771 392.88C666.912 389.091 665.114 385.275 662.886 381.672C661.784 379.889 660.61 378.123 658.937 376.797C658.042 376.087 654.269 374.861 655.711 373.269C634.552 373.546 615.807 389.797 611.744 409.912C611.367 411.787 611.071 413.677 610.758 415.564C610.561 416.755 610.641 421.148 609.576 421.908C607.228 423.587 608.214 418.487 608.316 417.753C608.577 415.855 608.854 413.96 609.145 412.067C610.732 401.772 615.315 392.202 622.958 384.86C631.698 376.465 643.491 371.02 655.84 371.02Z" fill="#175ED3"/>
<path fill-rule="evenodd" clip-rule="evenodd" d="M67.7955 345.633C88.1649 379.806 111.889 412.895 126.136 450.257C125.562 445.853 124.953 441.453 124.271 437.061C120.657 413.773 116.163 390.655 111.443 367.566C109.039 355.81 106.495 344.096 103.887 332.383C102.485 326.092 101.099 319.798 99.6673 313.514C99.3203 311.99 99.0224 309.331 98.5892 306.637C112.435 352.072 125.787 397.542 135.554 444.069C136.835 450.175 137.926 456.271 138.82 462.356C139.125 460.968 139.426 459.58 139.755 458.195C143.707 441.601 149.635 425.138 156.693 409.621C160.067 402.202 163.942 394.944 168.506 388.18C171.352 383.965 178.063 378.954 180.658 374.636C166.462 400.675 161.335 433.255 153.138 461.563C151.138 468.471 149.124 475.368 147.151 482.276C159.513 457.486 178.692 437.117 205.359 428.291C173.08 449.618 153.719 486.968 140.673 525.167C140.63 525.62 140.579 526.073 140.534 526.527C144.374 519.241 149.209 512.65 155.763 508.035C169.792 498.153 185.353 501.031 198.961 509.508C188.281 502.719 168.98 508.901 159.994 515.801C153.561 520.74 148.064 527.366 143.289 533.832C142.146 535.381 140.584 537.189 138.935 539.118C136.624 554.123 132.857 569.026 127.523 583.81C128.404 579.566 127.768 572.78 128.012 569.617C128.038 569.275 128.06 568.931 128.086 568.591C127.276 571.827 126.492 575.027 125.738 578.176C127.237 572.168 128.051 565.895 128.688 559.559C128.851 556.836 129.012 554.112 129.18 551.39C129.126 546.22 128.913 541.033 128.553 535.835C127.278 530.785 125.848 526.021 124.669 522.058C120.416 507.762 114.18 494.067 106.505 481.29C99.5025 469.63 91.1201 459.069 81.4435 449.517C76.2268 444.369 70.7675 439.467 65.385 434.497C63.4386 432.699 59.9597 428.281 56.9509 425.977C78.8635 438.058 101.418 451.127 117.403 470.592C115.528 463.396 113.493 456.301 111.34 449.348C100.416 414.073 86.623 377.516 67.7955 345.633Z" fill="#1C72FF"/>
<path fill-rule="evenodd" clip-rule="evenodd" d="M89.688 539.07C89.688 578.244 92.7901 610 134.429 610C176.067 610 179.169 578.244 179.169 539.07" fill="#121212"/>
<path d="M560.01 38.1931C560.01 36.3851 558.544 34.9194 556.736 34.9194C554.928 34.9194 553.463 36.3851 553.463 38.1931V58.9266C553.463 60.7346 554.928 62.2003 556.736 62.2003C558.544 62.2003 560.01 60.7346 560.01 58.9266V38.1931Z" fill="#D6E5FF"/>
<path d="M575.287 20.7334C575.287 18.9254 573.822 17.4597 572.014 17.4597C570.206 17.4597 568.74 18.9254 568.74 20.7334V58.9266C568.74 60.7346 570.206 62.2003 572.014 62.2003C573.822 62.2003 575.287 60.7346 575.287 58.9266V20.7334Z" fill="#D6E5FF"/>
<path d="M590.565 12.0037C590.565 10.1957 589.099 8.72998 587.291 8.72998C585.483 8.72998 584.017 10.1957 584.017 12.0037V58.9268C584.017 60.7348 585.483 62.2005 587.291 62.2005C589.099 62.2005 590.565 60.7348 590.565 58.9268V12.0037Z" fill="#D6E5FF"/>
<path d="M605.842 20.7334C605.842 18.9254 604.376 17.4597 602.568 17.4597C600.76 17.4597 599.295 18.9254 599.295 20.7334V58.9266C599.295 60.7346 600.76 62.2003 602.568 62.2003C604.376 62.2003 605.842 60.7346 605.842 58.9266V20.7334Z" fill="#D6E5FF"/>
<path d="M621.119 3.2737C621.119 1.46569 619.654 0 617.846 0C616.038 0 614.572 1.46569 614.572 3.2737V58.9267C614.572 60.7347 616.038 62.2004 617.846 62.2004C619.654 62.2004 621.119 60.7347 621.119 58.9267V3.2737Z" fill="#121212"/>
<path fill-rule="evenodd" clip-rule="evenodd" d="M16.5753 334.197C16.5753 322.042 26.3985 312.093 38.3999 312.093V334.197L23.485 350.286C19.2422 346.352 16.5753 340.582 16.5753 334.197Z" fill="#F9FAFB"/>
<path fill-rule="evenodd" clip-rule="evenodd" d="M37.8224 333.918H59.8624C59.8624 339.615 57.5383 344.953 53.8642 348.833C49.8232 353.075 44.0685 355.742 37.8224 355.742C32.069 355.742 26.8025 353.441 22.7604 349.803L37.8224 333.918Z" fill="#175ED3"/>
<path fill-rule="evenodd" clip-rule="evenodd" d="M60.2246 333.918C60.2246 321.916 50.4013 312.093 38.3999 312.093V333.918H60.2246ZM27.4876 312.093L36.2175 331.735L16.5753 323.005C18.5177 317.914 22.8793 314.035 27.4876 312.093Z" fill="#121212"/>
<path fill-rule="evenodd" clip-rule="evenodd" d="M726.713 343.934C724.617 346.16 721.647 347.558 718.343 347.558C711.995 347.558 706.849 342.428 706.849 336.1C706.849 329.772 711.995 324.642 718.343 324.642V303.363C700.284 303.363 685.502 318.098 685.502 336.1C685.502 354.102 700.284 368.837 718.343 368.837C727.829 368.837 736.403 364.837 742.246 358.473L726.713 343.934Z" fill="#F9FAFB"/>
<path fill-rule="evenodd" clip-rule="evenodd" d="M718.239 303.363V324.642C724.567 324.642 729.697 329.772 729.697 336.1H750.976C750.976 318.098 736.241 303.363 718.239 303.363Z" fill="#175ED3"/>
<path fill-rule="evenodd" clip-rule="evenodd" d="M729.257 336.1C729.257 339.818 727.506 343.122 724.786 345.257L738.167 362.29C745.955 356.192 750.976 346.739 750.976 336.1H729.257Z" fill="#121212"/>
<path fill-rule="evenodd" clip-rule="evenodd" d="M518.599 43.1081C516.986 44.8148 514.701 45.8865 512.159 45.8865C507.276 45.8865 503.318 41.9536 503.318 37.1021C503.318 32.2505 507.276 28.3176 512.159 28.3176V12.0037C498.268 12.0037 486.897 23.3004 486.897 37.1021C486.897 50.9037 498.268 62.2004 512.159 62.2004C519.457 62.2004 526.051 59.133 530.547 54.2541L518.599 43.1081Z" fill="#F9FAFB"/>
<path fill-rule="evenodd" clip-rule="evenodd" d="M511.996 12.0037V28.3176C516.847 28.3176 520.78 32.2505 520.78 37.1021H537.094C537.094 23.3004 525.798 12.0037 511.996 12.0037Z" fill="#175ED3"/>
<path fill-rule="evenodd" clip-rule="evenodd" d="M520.805 37.1021C520.805 39.8904 519.491 42.369 517.452 43.9693L527.487 56.7443C533.329 52.1707 537.094 45.0812 537.094 37.1021H520.805Z" fill="#121212"/>
<path fill-rule="evenodd" clip-rule="evenodd" d="M121.341 62.1849C121.337 62.1956 121.333 62.2064 121.326 62.2193C121.333 62.2085 121.341 62.1655 121.341 62.1849Z" fill="#121212"/>
<path fill-rule="evenodd" clip-rule="evenodd" d="M121.331 62.201C121.331 62.2031 121.329 62.2073 121.329 62.2116C121.329 62.201 121.348 62.1693 121.331 62.201Z" fill="#121212"/>
<path fill-rule="evenodd" clip-rule="evenodd" d="M121.407 62.0168C121.392 62.0605 121.372 62.102 121.354 62.1456C121.363 62.1238 121.372 62.1063 121.381 62.0845C121.154 62.6519 121.298 62.2831 121.407 62.0168Z" fill="#121212"/>
<path fill-rule="evenodd" clip-rule="evenodd" d="M121.358 62.1489C121.349 62.1686 121.34 62.1904 121.332 62.21C121.268 62.3323 121.358 62.1489 121.358 62.1489Z" fill="#121212"/>
<path fill-rule="evenodd" clip-rule="evenodd" d="M121.323 62.2172C121.383 62.1183 121.31 62.243 121.323 62.2172Z" fill="#121212"/>
<path fill-rule="evenodd" clip-rule="evenodd" d="M121.332 62.202L121.336 62.198C121.334 62.2 121.334 62.202 121.332 62.202Z" fill="#121212"/>
<path d="M168.257 5.45605H73.3194C70.9087 5.45605 68.9545 7.4103 68.9545 9.82099V69.8389C68.9545 72.2496 70.9087 74.2038 73.3194 74.2038H168.257C170.667 74.2038 172.622 72.2496 172.622 69.8389V9.82099C172.622 7.4103 170.667 5.45605 168.257 5.45605Z" fill="#D6E5FF"/>
<path fill-rule="evenodd" clip-rule="evenodd" d="M108.239 25.0984L77.6843 74.2039H138.793L108.239 25.0984Z" fill="#175ED3"/>
<path fill-rule="evenodd" clip-rule="evenodd" d="M138.248 38.1931L111.513 74.2038H164.983L138.248 38.1931Z" fill="#121212"/>
<path fill-rule="evenodd" clip-rule="evenodd" d="M149.706 38.193C155.13 38.193 159.527 33.796 159.527 28.3719C159.527 22.9478 155.13 18.5508 149.706 18.5508C144.281 18.5508 139.885 22.9478 139.885 28.3719C139.885 33.796 144.281 38.193 149.706 38.193Z" fill="white"/>
<path fill-rule="evenodd" clip-rule="evenodd" d="M641.845 528.142C641.849 528.153 641.853 528.164 641.86 528.177C641.853 528.166 641.845 528.123 641.845 528.142Z" fill="#121212"/>
<path fill-rule="evenodd" clip-rule="evenodd" d="M641.854 528.158C641.854 528.16 641.857 528.164 641.857 528.169C641.857 528.158 641.837 528.126 641.854 528.158Z" fill="#121212"/>
<path fill-rule="evenodd" clip-rule="evenodd" d="M641.779 527.974C641.795 528.018 641.814 528.059 641.832 528.103C641.823 528.081 641.814 528.064 641.806 528.042C642.032 528.609 641.888 528.24 641.779 527.974Z" fill="#121212"/>
<path fill-rule="evenodd" clip-rule="evenodd" d="M641.828 528.106C641.837 528.126 641.846 528.147 641.855 528.167C641.918 528.289 641.828 528.106 641.828 528.106Z" fill="#121212"/>
<path fill-rule="evenodd" clip-rule="evenodd" d="M641.863 528.174C641.876 528.2 641.803 528.075 641.863 528.174Z" fill="#121212"/>
<path fill-rule="evenodd" clip-rule="evenodd" d="M641.854 528.159L641.85 528.155C641.852 528.157 641.852 528.159 641.854 528.159Z" fill="#121212"/>
<path d="M568.74 444.132H714.965C717.376 444.132 719.33 446.087 719.33 448.497V542.343C719.33 544.754 717.376 546.708 714.965 546.708H568.74C566.329 546.708 564.375 544.754 564.375 542.343V448.497C564.375 446.087 566.329 444.132 568.74 444.132Z" fill="#D6E5FF"/>
<path fill-rule="evenodd" clip-rule="evenodd" d="M661.794 473.596L706.594 546.708H616.993L661.794 473.596Z" fill="#175ED3"/>
<path fill-rule="evenodd" clip-rule="evenodd" d="M615.602 493.18L655.208 546.709H575.995L615.602 493.18Z" fill="#121212"/>
<path fill-rule="evenodd" clip-rule="evenodd" d="M598.749 493.238C590.612 493.238 584.017 486.642 584.017 478.506C584.017 470.37 590.612 463.774 598.749 463.774C606.885 463.774 613.48 470.37 613.48 478.506C613.48 486.642 606.885 493.238 598.749 493.238Z" fill="white"/>
</svg>
